<svg id="Capa_1" data-name="Capa 1" xmlns="http://www.w3.org/2000/svg" viewBox="0 0 1080 1080"><defs><style>.cls-1{fill:#383838;}.cls-2{fill:#fff;}</style></defs><path class="cls-1" d="M1047.48,485.12c-6.88-23.35-19.75-42.65-39.44-57.15-18.65-13.74-39.84-20.21-62.81-21.17a131.48,131.48,0,0,0-38.93,4.33c-11.8,3.09-23,7.6-32.91,14.79-.41.29-.82.58-1.26.83a9.87,9.87,0,0,1-13.68-3.92c-.24-.44-.43-.91-.64-1.37a16.25,16.25,0,0,0-12.34-9.52A90.91,90.91,0,0,0,830,410.61c-8.32-.18-16.65-.22-25,0a158,158,0,0,0-15.81,1.32c-8.31,1.07-13.21,6-14.73,14.41a15.83,15.83,0,0,1-.63,2.55,8.21,8.21,0,0,1-7,5.63,8,8,0,0,1-7.61-3.3,23,23,0,0,1-1.62-2.55c-2.41-4-4.85-8-7.2-12a15.32,15.32,0,0,0-10.4-7.52,34.32,34.32,0,0,0-6.36-.9c-13.74-.38-27.48-.47-41.15,1.46A34.31,34.31,0,0,0,680,413.6c-5.51,3.19-8.72,7.9-9.23,14.3-.29,3.65-.53,7.3-.66,11-.26,7.81-.42,15.62-.63,23.44a16.79,16.79,0,0,1-.1,1.88,5.12,5.12,0,0,1-2.7,3.89,6.9,6.9,0,0,1-9.83-3.19c-.8-1.85-1.43-3.77-2.09-5.67-3.78-11-7.51-21.93-11.33-32.87a65.93,65.93,0,0,0-3.19-7.67,13.87,13.87,0,0,0-9.81-7.62,22.66,22.66,0,0,0-4.09-.59c-4.41-.18-8.83-.36-13.24-.35-16.14.06-32.28.31-48.4,1.22a111.94,111.94,0,0,0-11.24,1.37,9.93,9.93,0,0,0-7.67,5.53c-1.71,3.37-3.62,6.66-5,10.15-3.39,8.27-6.55,16.64-9.79,25-.37.93-.63,1.92-1.07,2.82a8.51,8.51,0,0,1-8.17,5.09,8.24,8.24,0,0,1-7.8-5,25.28,25.28,0,0,1-1.09-2.82,49.84,49.84,0,0,0-11.4-18.1,67.57,67.57,0,0,0-20.78-14.23c-10.4-4.76-21.4-7.4-32.66-9.06a198.7,198.7,0,0,0-30.93-1.86c-16.64.17-33.28.45-49.89,1.78a41.53,41.53,0,0,0-10.37,1.92c-6.17,2.15-9.84,6.52-10.7,12.95a87.7,87.7,0,0,0-.6,11.69c.07,18.66.23,37.32.36,56a21.5,21.5,0,0,1,0,2.27c-.06.64.34,1.39-.51,2.14-.27-1.14-.57-2.09-.7-3.06-.18-1.37-.19-2.77-.36-4.14-1.52-12.52-3.34-25-6-37.32a261.8,261.8,0,0,0-12.69-43.08c-4.56-11.39-10-22.31-17.35-32.2a95.79,95.79,0,0,0-8.21-9.88c-8.77-9-19.38-13.32-32.08-11.91a32.41,32.41,0,0,1-3.43,0,7.19,7.19,0,0,1-.12-1.63,32.42,32.42,0,0,0-.18-10.54A46,46,0,0,0,251.86,319c-8.86-9.18-20-13.36-32.44-14.39a103.12,103.12,0,0,0-40.28,4.89C163.86,314.37,150,321.94,137,331.27c-9,6.5-17.09,14.14-25,21.89a193.37,193.37,0,0,0-29.06,36.68c-5.78,9.31-11.22,18.84-16.65,28.37a276.57,276.57,0,0,0-22,49.7,331.88,331.88,0,0,0-14.55,64,239.16,239.16,0,0,0-2.21,29.77c0,4.79,0,9.58,0,14.37A205,205,0,0,0,33,625.55a149.55,149.55,0,0,0,13.79,37.09c10.24,18.85,25.13,32.62,44.92,41,14.11,6,28.94,8.67,44.16,9.19a302.76,302.76,0,0,0,41.94-1.34c7.39-.78,14.8-1.48,22.13-2.64a220.85,220.85,0,0,0,40.64-10.12,17.72,17.72,0,0,1,2.47-.5,6,6,0,0,1,.62.72c1.17,1.94,2.31,3.9,3.49,5.84A263.07,263.07,0,0,0,287,756a61.73,61.73,0,0,0,23.26,14.4,98.86,98.86,0,0,0,27,5.15A122.24,122.24,0,0,0,365.13,774c19.44-3.28,37.67-10.06,55-19.38a25.25,25.25,0,0,0,7.58-6.19c4.42-5.33,6-11.44,3.46-18a21.59,21.59,0,0,0-13.2-13.2,135,135,0,0,1-12.55-5.24c-13.17-6.31-24.91-14.77-35.77-24.48-17.42-15.57-31.95-33.58-44.65-53.12a17.4,17.4,0,0,1-1-2,172.31,172.31,0,0,0,10.48-20.63,135.41,135.41,0,0,0,7.24-21.46c1.74-7.45,3.2-15,4.95-23.24.14,2,.27,3.16.31,4.36.27,10.08.48,20.17.81,30.25a49.63,49.63,0,0,0,.83,8.26c1.32,6.52,5.19,10.77,11.83,12.26a27.16,27.16,0,0,0,3.33.64c6.53.55,13.06,1.18,19.6,1.51,9.57.49,19.15.83,28.73,1.07q16.06.42,32.15.53a99.18,99.18,0,0,0,22.1-2.67,133.92,133.92,0,0,0,24-8c1.67-.72,3-.82,4.5.4a18.86,18.86,0,0,0,8.61,3.64,208.34,208.34,0,0,0,22.12,2.7c9.67.85,19.37,1.4,29,2.07a39.68,39.68,0,0,0,9.8-.35,11.92,11.92,0,0,0,3.26-.89c4.16-2.07,7.7-4.8,9.35-9.39,1.15-3.2,2.53-6.34,3.39-9.62,1-3.7,3.33-5.76,6.76-7a27.05,27.05,0,0,1,11.19-1.21,7.08,7.08,0,0,1,6.51,4.94c.41,1.06.66,2.17,1.07,3.23,1.53,4,2.89,8.07,4.69,12,2.66,5.71,7.66,8.23,13.68,8.59a97.64,97.64,0,0,0,12.09-.25q12.83-.84,25.64-2c5.27-.46,10.55-1,15.77-1.81a15,15,0,0,1,7.75.56,61.42,61.42,0,0,0,18.89,3.47,260.7,260.7,0,0,0,30.23-.86c2.76-.22,5.49-.73,8.22-1.21,7-1.25,11.74-7.54,12.55-13.52.13-1,.23-2,.45-3,.7-3.13,2.66-5.14,5.45-5.57a6.68,6.68,0,0,1,7.09,3.28c.61,1,1.14,2,1.74,2.92,2.4,3.85,4.77,7.72,7.22,11.54a17.07,17.07,0,0,0,12.78,7.84c2.49.33,5,.61,7.53.69a204.5,204.5,0,0,0,38.46-2.17c7.27-1.16,13.9-3.62,18.44-10a12.44,12.44,0,0,1,2.51-2.28,13.19,13.19,0,0,1,4.73-2.26c3.39-.94,6.5-.14,9.54,1.23a248.92,248.92,0,0,0,36.65,13,145.35,145.35,0,0,0,24.06,4.79,116.57,116.57,0,0,0,34.6-2c48.13-9.7,80.46-49.66,85.18-95.24A119.42,119.42,0,0,0,1047.48,485.12Zm-807.24,8.1a11.23,11.23,0,0,1-.59,1.61c-1.45.13-2-.89-2.64-1.53a39.36,39.36,0,0,0-12.6-8.17,34.11,34.11,0,0,0-25.08-.16,25.28,25.28,0,0,0-3.13,1.32A96.67,96.67,0,0,0,177.46,499c-7.05,6.17-10.61,14.21-12.09,23.32a59.31,59.31,0,0,0,1.11,22.87c.22,1,.33,1.93.54,3.19a16.35,16.35,0,0,1-2,.06,38,38,0,0,1-11.22-3.17,30.35,30.35,0,0,1-14.29-13,68.81,68.81,0,0,1-7.66-22.4c-1.58-9.07-.9-18.07.86-27a132.22,132.22,0,0,1,18.23-46.09,104.34,104.34,0,0,1,13.85-17.42,55.51,55.51,0,0,1,30.5-16.23,43.1,43.1,0,0,1,14.68-.22,56.75,56.75,0,0,0,18.79.56,16.63,16.63,0,0,1,1.88-.15,3.58,3.58,0,0,1,.63.24,5.38,5.38,0,0,1,.52,3.74,71.72,71.72,0,0,0,2.15,22.84c2,8.45,4.12,16.88,5.85,25.39,1.17,5.79,1.84,11.68,2.61,17.55.6,4.55-.25,9.05-.85,13.54C241.24,488.79,240.71,491,240.24,493.22ZM930,535.33a26.94,26.94,0,0,1-4.77-11,38.27,38.27,0,0,1,1.2-19.74,24.5,24.5,0,0,1,3.9-7.28c8.5-11,27-9.81,33.3,3.74,2.22,4.79,2.76,9.9,3,15a43,43,0,0,1-2.25,13.78c-2.12,5.67-5.65,10.1-11.51,12.23A19.35,19.35,0,0,1,930,535.33Z"/><path class="cls-2" d="M248.49,670.81c-1.52.56-2.59.91-3.63,1.34A206,206,0,0,1,202,684.2a320.45,320.45,0,0,1-34.55,4,316.17,316.17,0,0,1-32.14.49,115.08,115.08,0,0,1-31.21-5.4q-34.08-11-49.34-43.41a156.56,156.56,0,0,1-12.06-38.11,195.82,195.82,0,0,1-2.81-50.1c2.81-40.3,12.47-78.9,30.41-115.19a369.14,369.14,0,0,1,30.8-52,189,189,0,0,1,24-27.18,183.67,183.67,0,0,1,23-19.05c12.41-8.41,25.66-15,40.23-18.81a92.4,92.4,0,0,1,29.24-2.84,44.72,44.72,0,0,1,13.27,2.84c12.29,4.72,19.15,13.82,21.47,26.61a28.67,28.67,0,0,1-.86,13.83,26,26,0,0,1-12.77,15.73,36.25,36.25,0,0,1-22,4.08c-2.75-.32-5.48-.92-8.24-1.11-17.43-1.21-32.83,4-46.36,14.93A89.77,89.77,0,0,0,148,408.14a139.37,139.37,0,0,0-25.83,54.21,127.92,127.92,0,0,0-3.73,34.86c.45,11.81,2.54,23.3,7.29,34.2a52.21,52.21,0,0,0,8.85,14.45,44,44,0,0,0,21.05,12.81c9.12,2.62,18.4,2.84,27.76,1.91a63.89,63.89,0,0,0,6.72-1.07c2.76-.57,3.07-1.44,1.5-3.91-1.29-2-2.71-4-4-6-2.1-3.44-4.2-6.89-6.11-10.44a30.8,30.8,0,0,1-3.56-10.32,22.6,22.6,0,0,1,6.24-19.79c3-3.11,14.78-11.09,18.74-12.63,8.07-3.15,15.59-1.93,22.6,3a36.43,36.43,0,0,1,7.55,7.38c2.51,3.16,4.85,6.45,7.29,9.66.82,1.09,1.48,2.41,3.33,2.51a19.22,19.22,0,0,0,1.29-2.1,111.52,111.52,0,0,0,8.91-31.94c1.91-15.57.55-31-2.74-46.21-1.6-7.39-3.41-14.74-5.22-22.08a81.06,81.06,0,0,1-2.32-14.16,36.7,36.7,0,0,1,2.31-16A25,25,0,0,1,254,375.71a30.48,30.48,0,0,1,17.41-6.65,24.37,24.37,0,0,1,19.11,7.57,94.56,94.56,0,0,1,8.5,10.13A127.35,127.35,0,0,1,314.25,415a248.06,248.06,0,0,1,12.93,44.61,418.12,418.12,0,0,1,6.23,44.16c1,10.81,1.7,21.64,1.74,32.47A149,149,0,0,1,324.59,592a145.3,145.3,0,0,1-16.5,30.54c-.58.83-1.14,1.66-1.69,2.51a4.52,4.52,0,0,0-.3.91c.37.76.75,1.69,1.24,2.56,12.73,22.52,28,43.14,46.73,61.06a193.83,193.83,0,0,0,42.24,31,133.29,133.29,0,0,0,16.86,7.67,21,21,0,0,1,2.74,1.23,1.29,1.29,0,0,1,.13,2,11.72,11.72,0,0,1-1.87,1.25,160.77,160.77,0,0,1-50.94,17.39,124.21,124.21,0,0,1-24.89,1.31,82.91,82.91,0,0,1-25.85-5.18,48.12,48.12,0,0,1-16.79-10.66,240.52,240.52,0,0,1-35.25-44.3c-3.41-5.45-6.49-11.1-9.72-16.66C250.05,673.48,249.36,672.3,248.49,670.81Z"/><path class="cls-2" d="M948.67,420.56a92.36,92.36,0,0,1,35.13,6.6c20.8,8.46,35.29,23.35,44.2,43.82a105.25,105.25,0,0,1,7.67,28.37A130.74,130.74,0,0,1,1037,519.7c-.37,15.44-3.38,30.3-10.37,44.17Q1008.5,599.81,969,608a101.67,101.67,0,0,1-47.21-1.23c-25.84-6.89-43.82-23-54.32-47.46a108.58,108.58,0,0,1-7.72-30.3,129.25,129.25,0,0,1-.64-24.16c1.28-18.37,6.76-35.35,17.66-50.34,12.67-17.42,29.81-27.89,50.85-32.13A103.22,103.22,0,0,1,948.67,420.56Zm29.43,93.88c-.34-4-.54-8-1-12a45.78,45.78,0,0,0-4-14.11c-4.3-9-11.27-14.47-21.23-15.56-11.7-1.28-21.31,2.56-28.09,12.52a38.56,38.56,0,0,0-5.32,12,69.29,69.29,0,0,0-1.4,28.84,47.49,47.49,0,0,0,5,15,33.16,33.16,0,0,0,8.56,10.45c5.73,4.55,12.29,6.12,19.49,5.52,8.4-.7,15.16-4.29,20-11.23a37.62,37.62,0,0,0,5.53-12.34A85.7,85.7,0,0,0,978.1,514.44Z"/><path class="cls-2" d="M573.34,572.57c-.43,1.71-.79,3-1.1,4.36-1.74,7.62-3.37,15.26-5.22,22.85-1.42,5.78-1.54,5.78-7.41,5.44-7.42-.45-14.85-.79-22.26-1.46-8.77-.81-17.59-1.35-26.28-2.88a24.69,24.69,0,0,1-2.48-.73c-.32-1.75.34-3.16.73-4.58,2.37-8.62,4.73-17.25,7.23-25.85q15.86-54.63,31.8-109.25c2.8-9.55,5.89-19,8.89-28.51.48-1.54,1.17-3,1.74-4.45a37.45,37.45,0,0,1,8.46-1.13c11.22-.33,22.43-.71,33.64-1,6-.17,12.1-.3,18.15-.32,2.64,0,5.28.31,7.92.46a2.66,2.66,0,0,1,2.56,1.88c.52,1.42,1.07,2.84,1.57,4.26,10.26,29.26,20,58.69,29.41,88.22,6.55,20.53,13,41.1,18.54,61.93,1.42,5.35,2.64,10.76,3.88,16.17.45,1.93.09,2.46-1.9,2.89-2.34.5-4.7.95-7.07,1.25-3.37.43-6.76.73-10.15,1-4.76.43-9.53.9-14.31,1.21-6.53.43-13.08.72-19.63,1.07-.5,0-1,0-1.51,0a2.51,2.51,0,0,1-2.55-1.85c-.39-1.06-.83-2.11-1.17-3.19q-3.45-11-6.87-22c-.12-.36-.2-.73-.3-1.1-1.21-4.12-1.21-4.14-5.38-4.19-7.06-.08-14.12-.11-21.18-.23-4.66-.08-9.32-.3-14-.42C576,572.39,574.88,572.5,573.34,572.57ZM611,529.52c-.33-1.53-.53-2.75-.84-3.94q-3.67-14.07-7.39-28.14c-1.66-6.33-3.28-12.67-5-19a10.78,10.78,0,0,0-1.18-2.72,1.35,1.35,0,0,0-1.28,0,7.22,7.22,0,0,0-1.14,2.31c-1.4,5.23-2.73,10.48-4.09,15.72q-4.27,16.44-8.55,32.9c-.24.94-.73,1.92,0,3a3.35,3.35,0,0,0,1,.32q13.23,0,26.46,0A12.37,12.37,0,0,0,611,529.52Z"/><path class="cls-2" d="M478.19,511.23v-1.48s18.87-7.4,19.28-38.43c0,0,.45-25.72-30.42-41.31,0,0-21.78-14.18-104.4-4.73,0,0,1,159.07,3,180.34,0,0,100.58,10.45,123.4-8.51,0,0,20.89-11.21,20.89-40.62C509.91,556.49,510.3,518.58,478.19,511.23ZM416.8,466.41a45.26,45.26,0,0,1,11.83,0c16.05,1.59,13.94,14.53,13.94,14.53-.21,12.26-17.32,12-17.32,12a49.24,49.24,0,0,1-8.45-.91ZM451,549.79c-.26,13.93-21.15,13.67-21.15,13.67a64.43,64.43,0,0,1-10.31-1V533.28a58.91,58.91,0,0,1,14.44,0C453.56,535.09,451,549.79,451,549.79Z"/><path class="cls-2" d="M692,601.66s19.69,4.57,53.55-.47c0,0-.76-74.65-.93-84,0,0,49.22,83.15,52,87.19a131.19,131.19,0,0,0,32.52,0s11.43,0,18.46-3.87c0,0,4.57-50.8,2.28-176.14,0,0-20.39-4.39-53.79,0,0,0-.88,24.91-.17,91.94,0,0-42.19-81-53.44-95.45,0,0-35.1-2.81-50.51,3.34C692,424.23,687.41,516.11,692,601.66Z"/></svg>