<svg id="Capa_1" data-name="Capa 1" xmlns="http://www.w3.org/2000/svg" viewBox="0 0 1030 1080"><defs><style>.cls-1{fill:#383838;}</style></defs><path class="cls-1" d="M515.77,850.09C657.55,850.09,772.9,734.74,772.9,593a256.19,256.19,0,0,0-69.52-175.64c20.62-33.88,45.39-79.91,45.39-105.41a82,82,0,0,0-164,0c0,9.66,3.56,22.27,9.1,36A256.92,256.92,0,0,0,384.37,372a68.41,68.41,0,0,0-127.27,34.9c0,17.53,14,46.57,28.4,71.71A255.53,255.53,0,0,0,258.64,593C258.64,734.74,374,850.09,515.77,850.09Zm-148-244.92c1.53,26.19,7.93,53.06,19,80-24.28,9.61-46.19,21.85-64.77,36.42a231.24,231.24,0,0,1-38.58-116.45Zm37.6-85.31a376.72,376.72,0,0,0,98.21,17.57v43.33H392.21A220.75,220.75,0,0,1,405.36,519.86Zm234,60.9H528V537.89A387.76,387.76,0,0,0,627.66,524,218.36,218.36,0,0,1,639.33,580.76Zm-15.94,92.41A388.83,388.83,0,0,0,528,660.46V605.17H639.33C637.8,629,631.9,651.8,623.39,673.17Zm-231.18-68H503.57v55.74a378.91,378.91,0,0,0-93.85,16.2C400.37,654.63,393.84,630.44,392.21,605.17Zm111.36,80.17V807.29c-22.15-20.93-58.27-59.39-83.44-107.9A355.67,355.67,0,0,1,503.57,685.34ZM528,807.26V684.87a366.56,366.56,0,0,1,85.26,10.83C588,745.88,550.67,785.78,528,807.26Zm0-293.78V377c24.39,23.44,65.68,68.33,90.67,124.19A364.86,364.86,0,0,1,528,513.48ZM503.57,377.11V513a352.9,352.9,0,0,1-88.85-15.74C439.84,443.31,479.73,400,503.57,377.11ZM336.5,741.19l.23-.14c17.12-13.48,37.47-24.79,60.11-33.64a385.79,385.79,0,0,0,41.24,64.36,485.48,485.48,0,0,0,47.21,51.92A232.67,232.67,0,0,1,336.5,741.19Zm209.76,82.5a485.48,485.48,0,0,0,47.21-51.92A381.48,381.48,0,0,0,637,702.69c23.7,8,45.25,18.57,63.68,31.37A232.83,232.83,0,0,1,546.26,823.69ZM714.51,713.94c-19.73-13.69-42.64-25-67.72-33.66,9.83-25.31,15.56-50.51,17-75.11h84.4A231.21,231.21,0,0,1,714.51,713.94ZM663.78,580.76a243.72,243.72,0,0,0-12.92-64.14c25.66-9.23,48.94-21.29,68.75-35.85a231.2,231.2,0,0,1,28.57,100Zm60.58-268.85c0,17-18.76,54-39,87.94-4.33,7.25-8.71,14.35-13,21.09-1.89,3-3.76,5.87-5.59,8.67-5.4-8.25-11.09-17.29-16.71-26.62-8.38-13.9-16.59-28.44-23.44-42-10.26-20.37-17.45-38.54-17.45-49.07a57.6,57.6,0,0,1,115.19,0ZM608.71,379.62c19.2,36.71,43.65,72.52,48,78.83a12.21,12.21,0,0,0,20.09,0c1.73-2.51,6.63-9.66,13.11-19.68A233.54,233.54,0,0,1,706.65,460c-18.4,13.8-40.29,25.21-64.58,33.9-11.7-27-28-54.05-48.54-80.62a495.52,495.52,0,0,0-45.34-50.76A231,231,0,0,1,608.71,379.62ZM483.44,362.49a495.42,495.42,0,0,0-45.38,50.77c-19.32,24.93-34.83,50.3-46.34,75.61a259.94,259.94,0,0,1-25.18-12C385,444.49,394,421.58,394,406.92a68.83,68.83,0,0,0-1-11.56A231.4,231.4,0,0,1,483.44,362.49Zm-157.91.4a44.06,44.06,0,0,1,44,44,27,27,0,0,1-.84,5.82c-2.29,9.73-9.35,27.3-22.82,51.34q-5.5,9.81-12.46,21c-2.49,4-5.11,8.13-7.9,12.39-4.43-6.77-8.46-13.21-12.15-19.33q-8-13.23-13.77-24.33c-12.79-24.35-18.11-40.6-18.11-46.93A44.08,44.08,0,0,1,325.53,362.89ZM300.76,503.94c7.24,11.44,13,19.84,14.73,22.37a12.2,12.2,0,0,0,20.08,0c.44-.64,8.49-12.32,18.5-28.5a283.7,283.7,0,0,0,28.44,13.62c-8.46,23.41-13.43,46.65-14.75,69.33H283.37A231,231,0,0,1,300.76,503.94Z"/><path class="cls-1" d="M314.31,433.37a31.91,31.91,0,0,0,11.22,2.05,32.37,32.37,0,0,0,32.33-32.32,32.33,32.33,0,1,0-43.55,30.27Zm11.22-45.16a14.91,14.91,0,0,1,14.89,14.89,15.07,15.07,0,0,1-.17,2.14,14.89,14.89,0,0,1-12.54,12.57,14.35,14.35,0,0,1-2.18.18,14.89,14.89,0,1,1,0-29.78Z"/><path class="cls-1" d="M666.77,345.2a38,38,0,1,0-38-38A38.07,38.07,0,0,0,666.77,345.2Zm0-58.61a20.59,20.59,0,1,1-20.59,20.58A20.6,20.6,0,0,1,666.77,286.59Z"/></svg>