<svg id="Capa_1" data-name="Capa 1" xmlns="http://www.w3.org/2000/svg" viewBox="0 0 1080 1080"><defs><style>.cls-1{fill:#383838;}.cls-2{fill:#fff;}</style></defs><path class="cls-1" d="M722.91,780.77a156.8,156.8,0,0,1-19.49-.81c-44.67-2.44-107.2-21.93-134-54.41A63.21,63.21,0,0,1,554,683.32c-12.18,2.44-24.37,3.25-38.17,3.25q-39,0-63.34-17.06c-10.56,7.31-22.74,11.37-37.36,11.37H385.08c-27.61,0-41.41-14.61-47.91-22.73a89,89,0,0,1-4.87-8.94,61.6,61.6,0,0,1-54.41,32.49h-30c-27.61,0-41.41-14.62-47.91-22.74-2.43-4.06-5.68-8.93-7.31-16.24h0l-2.43,4.87c-11.37,21.92-32.49,34.11-56.85,34.11H88.68c-17.87,0-34.11-8.94-44.67-24.37-9.74-15.43-11.37-35.73-4.06-52,0-.81.81-1.62,1.63-3.25l.81-.81c2.43-5.68,6.5-16.24,9.74-23.55,7.31-16.24,13.81-32.48,21.12-48.72,21.11-48.73,40.6-94.21,54.41-134a100.32,100.32,0,0,1,8.12-19.49c10.55-18.67,31.67-30.86,55.22-30.86l122.62-3.24h1.63c30,0,53.59,21.92,54.41,52V395A73.91,73.91,0,0,1,364,423.46c8.93-2.44,17.87-4.06,26-4.06a61.61,61.61,0,0,1,12.18.81,79.45,79.45,0,0,1,25.17-54.41c15.43-13.81,34.92-21.93,55.22-21.93,47.1,0,73.09,34.92,73.09,68.22v5.68a152.26,152.26,0,0,1,27.61-2.43c22.74,0,42.23,4.87,57.66,13,6.49-14.62,12.18-28.42,14.62-36.55,0-.81,0-.81.81-1.62,6.49-15.43,18.68-26,35.73-32.48,15.43-5.69,34.11-8.94,48.72-8.94,16.25,0,28.43,4.07,38.17,11.37h0c14.62,11.37,26,34.11,14.62,62.53a67.41,67.41,0,0,1,27.61,16.25,70.82,70.82,0,0,1,20.3-12.19A152.12,152.12,0,0,1,891,417.77c14.62,0,26.8,3.25,36.54,10.56a28.58,28.58,0,0,1,7.31-3.25c14.62-5.68,33.29-9.74,48.72-9.74,14.62,0,26,3.24,35.74,8.93h0a55,55,0,0,1,24.36,56c-4.06,35.73-12.18,60.91-21.12,87.71C999,638.66,954.35,695.5,892.63,732.86,843.91,764.53,783,780.77,722.91,780.77Z"/><path class="cls-2" d="M1009.57,442.13h0c-6.5-4.06-14.62-6.49-26-6.49a121.21,121.21,0,0,0-41.41,8.12c-5.69,2.43-11.37,5.68-16.24,11.37a29.18,29.18,0,0,0-8.12-8.94h0q-9.75-7.31-26.8-7.3A125.53,125.53,0,0,0,848.78,447a50.86,50.86,0,0,0-24.36,19.49c-.81,1.62-1.63,3.24-2.44,4.87-10.56-19.49-30.05-30.86-55.22-31.67,4.06-8.12,7.31-15.43,9.74-20.3v-.82c9.75-23.55-2.43-36.54-8.12-41.41h0q-9.74-7.31-26.79-7.31c-13,0-29.24,3.25-42.23,8.12-13.81,4.06-21.12,10.56-26,21.93v.81c-4.87,12.18-16.24,39-25.17,60.9-1.63-1.62-3.25-4.06-4.88-5.68-13-13.81-33.29-20.3-60.09-20.3a150.31,150.31,0,0,0-58.47,12.18c7.31-9.75,12.18-21.93,12.18-34.92,0-24.36-18.68-49.54-53.59-49.54a61,61,0,0,0-42.23,16.24c-13,12.18-19.49,26.8-19.49,43,0,10.56,3.25,19.49,8.12,27.61-1.63.82-4.06,1.63-5.69,3.25-8.12-8.93-19.49-13.8-34.1-13.8a70,70,0,0,0-27.61,5.68c-5.69-3.25-13.81-4.87-23.55-4.87h-4.88c8.94-13,15.43-30.86,15.43-44.66V395c-.81-19.49-15.43-34.1-35.73-34.1h-.81L191,364.17c-17.06,0-31.67,8.13-39,21.12-3.25,6.49-6.5,13.8-6.5,16.24-13.8,41.42-33.29,86.89-54.41,135.62C83.8,553.39,77.31,569.63,70,585.87c-3.25,7.31-7.31,17-9.75,23.55-.81,2.44-1.62,4.06-1.62,4.87h0c-4.87,10.56-3.25,23.55,3.25,33.3S78.12,663,90.3,663h43c17.87,0,31.67-8.93,40.6-24.36a3,3,0,0,0,.82-2.44c2.43-7.31,21.92-56,31.67-81.21a190.64,190.64,0,0,0,30.86-2.43c-10.56,25.17-19.49,48.72-23.55,58.47-7.31,17.86-2.44,30,1.62,36.54,4.87,6.5,13.81,14.62,31.67,14.62h30c19.49,0,34.92-11.37,40.6-29.24,8.94-27.61,17.87-50.35,23.55-65.78,2.44-5.68,4.06-9.74,4.87-13.8,4.07-10.56,13-15.43,19.49-15.43.82,0,3.25.81,4.88.81a28.84,28.84,0,0,0,8.12,1.62C366.41,569.63,355,598.86,351,610.23c-7.31,17.87-2.44,30,1.62,36.55,4.87,6.49,13.81,14.61,31.67,14.61h30.05c15.43,0,28.42-7.3,35.73-19.49.81,1.63,2.44,2.44,3.25,3.25,13,13.81,34.11,20.3,60.9,20.3,25.18,0,47.1-4.06,65.78-13a87.76,87.76,0,0,0-8.12,25.18c-1.62,8.12-.81,20.3,10.56,34.1,22.74,27.61,78.77,45.48,120.19,47.1,6.49,0,12.18.82,18.67.82h0c56.85,0,114.51-15.43,161.61-43.86,57.65-34.92,99.88-87.7,121.81-154.29,8.93-26.8,16.24-50.35,20.3-84.46C1028.25,464.06,1022.56,450.25,1009.57,442.13ZM731,660.58a159.73,159.73,0,0,0,56-41.41,57.64,57.64,0,0,0,6.5-8.12,90.24,90.24,0,0,0,13.8,24.36c3.25,3.25,6.5,6.49,10.56,8.93C791.12,654.09,761.08,660.58,731,660.58Z"/><path class="cls-1" d="M475.22,449.44c21.12,0,39-16.24,39-35.73,0-13-9.74-26.8-30.85-26.8s-39,16.24-39,35.73C444.37,438.07,456.55,449.44,475.22,449.44Z"/><path class="cls-1" d="M268.15,498.17c4.06-13.81-2.44-17.87-11.37-17.87s-30,.81-46.29,1.63c13.8-35.74,20.3-41.42,30-46.29,9.74-4.06,27.61-4.88,40.6-1.63,9.74,1.63,22.74,7.31,31.67-1.62,7.31-7.31,15.43-25.18,15.43-36.54,0-8.13-4.87-12.19-13-12.19l-123.44,3.25c-9.74,0-16.24,4.06-19.49,9.75-2.44,4.87-4.87,11.37-4.87,11.37-18.68,56-48.73,121.81-76.34,186.77-4.06,9.75-11.37,26.8-12.18,28.43-2.43,5.68.81,17,10.56,17h43.85c8.12,0,15.43-3.25,20.3-12.18,4.06-9.75,37.36-95.83,37.36-95.83,13.8.82,35.73-.81,47.1-2.43C254.34,526.59,262.46,520.09,268.15,498.17Z"/><path class="cls-1" d="M685.55,647.59c61.72,0,121.81-69.84,121.81-138,0-30.86-15.43-47.92-43.85-47.92-14.62,0-28.42,6.5-39,13,8.93-19.49,24.36-52,30.05-65.78,4.06-6.5,3.25-10.56-.81-13.81-6.5-4.87-31.67-2.43-47.1,4.06-8.12,2.44-10.56,5.69-12.18,9.75-7.31,17.86-28.43,69.84-38.17,89.33-10.56,22.73-30.05,65.77-30.05,94.2C625.46,628.1,647.38,647.59,685.55,647.59Zm50.35-138c11.37,0,13,11.36,13,17.05,0,34.92-26.79,74.71-52.78,74.71-7.31,0-12.18-6.5-12.18-16.24C683.93,551.76,712.35,509.54,735.9,509.54Z"/><path class="cls-1" d="M489.84,464.87c-6.49-4.87-31.67-1.62-47.1,4.06-8.12,2.44-10.56,5.69-12.18,9.75C418.38,507.1,381,597.24,372.9,619.17c-4.87,12.18-2.43,21.11,13,21.11h30a20.31,20.31,0,0,0,19.49-13c17.87-47.92,43-118.57,56.85-147.8Q495.92,469.74,489.84,464.87Z"/><path class="cls-1" d="M603.53,611.05c8.94-12.19,11.37-25.18,8.94-37.36-3.25-13-13-24.36-28.43-31.67-4.06-1.63-7.31-3.25-11.37-4.87-14.61-6.5-23.55-10.56-23.55-18.68,0-6.5,7.31-12.18,17.06-12.18h2.43c13.81,0,26.8,5.68,34.92,11.37,10.56,8.12,31.67-8.12,31.67-23.55,0-8.12-3.24-34.92-52.78-34.92-50.35,0-90.14,29.23-90.95,66.59a43.78,43.78,0,0,0,3.24,17.86c4.07,8.12,11.37,14.62,24.37,21.12,3.25,1.62,7.31,3.25,10.55,4.87,11.37,4.87,22.74,9.74,22.74,17,0,6.5-7.31,12.18-17,12.18h-3.25c-14.62,0-28.42-4.87-37.36-11.36-13.8-9.75-32.48,10.55-33.29,23.55,0,8.12,3.25,34.91,53.6,34.91C555.62,645.15,587.29,633,603.53,611.05Z"/><path class="cls-1" d="M997.39,460.81c-8.12-4.87-31.67-1.62-45.48,4.06-7.31,3.25-8.93,5.69-9.74,9.75-1.63,16.24-7.31,47.1-16.24,66.59-13.81,30-34.92,47.1-47.92,47.1-4.06,0-5.68-3.25-5.68-10.56,0-10.56,2.44-23.55,5.68-37.36,5.69-20.3,15.43-39,28.43-61.71,3.25-6.5,2.43-11.37-1.63-14.62-6.49-4.87-31.67-1.62-47.1,4.06-5.68,2.44-11.37,7.31-12.18,9.74-8.12,13-18.68,39-25.17,60.1-4.06,14.62-6.5,30-6.5,43.85,0,31.67,17,50.35,46.29,50.35A74.33,74.33,0,0,0,893.44,624c-37.35,36.54-103.94,58.47-164,58.47-32.48,0-77.95-8.93-103.94-28.42-14.62-10.56-26,16.24-27.61,28.42-4.06,25.17,60.09,52.78,109.63,55.22,97.45,6.5,231.44-39,278.54-181.91,8.93-28.42,16.24-49.53,19.49-80.39C1004.7,468.93,1002.26,464.06,997.39,460.81Z"/><path class="cls-1" d="M398.89,514.41c8.12-8.12,13.81-21.93,13.81-32.48,0-13.81-8.13-21.12-22.74-21.12-10.56,0-22.74,4.87-34.92,13,.81-4.06,0-7.3-3.25-9.74-6.5-4.87-31.67-1.62-47.1,4.06-8.12,2.44-10.56,5.68-12.18,9.74C280.33,506.29,243,596.43,234.85,618.35c-4.87,12.19-2.44,21.12,13,21.12h30a20.31,20.31,0,0,0,19.49-13c12.18-38.16,23.55-66.59,28.42-80.39,7.31-19.49,25.18-30.86,40.61-30.86C376.15,516,390,524.15,398.89,514.41Z"/></svg>