<svg id="Capa_1" data-name="Capa 1" xmlns="http://www.w3.org/2000/svg" viewBox="0 0 1080 1080"><defs><style>.cls-1{fill:#383838;}</style></defs><path class="cls-1" d="M450.91,1017.06a32.23,32.23,0,0,1-28.66-17.37L345.4,852.36a119.52,119.52,0,1,1,225.08-55v.27a105.07,105.07,0,0,1-5,30.15l-3.62,11.35c-4.63,11.58-4.81,12-7.27,16.6l-.11.22L479.59,999.67A32.23,32.23,0,0,1,450.91,1017.06Zm0-312.28a91.34,91.34,0,0,0-80.57,134.29l.08.14,76.88,147.4a4.06,4.06,0,0,0,7.2,0l75.12-144.24.12-.21c1.58-2.95,1.7-3.22,5.63-13l3.1-9.85a76.61,76.61,0,0,0,3.73-22.06V797a91.74,91.74,0,0,0-91.29-92.19Zm78.76,137.51,0,.09Zm.24-.42,0,0Zm-79,8.35a52.73,52.73,0,1,1,52.73-52.73A52.78,52.78,0,0,1,450.92,850.22Zm0-77.19a24.46,24.46,0,1,0,24.46,24.46A24.48,24.48,0,0,0,450.92,773Z"/><path class="cls-1" d="M558.26,226.64a17.39,17.39,0,0,1-15.47-9.38l-35.87-68.77a58.15,58.15,0,1,1,109.51-26.76v.11A51.45,51.45,0,0,1,614,136.62l-1.75,5.46c-2.16,5.42-2.29,5.74-3.5,8l0,.07-34.95,67.11A17.4,17.4,0,0,1,558.26,226.64Zm0-145.8a40.29,40.29,0,0,0-35.54,59.23l0,.09,35.5,68L593,141.49a44.06,44.06,0,0,0,2.47-5.74l1.42-4.52a33.45,33.45,0,0,0,1.64-9.57v-.17a40.48,40.48,0,0,0-40.27-40.65Zm0,67.9a27,27,0,1,1,27-27A27,27,0,0,1,558.26,148.74Zm0-36a9.07,9.07,0,1,0,9.07,9.07A9.08,9.08,0,0,0,558.26,112.7Z"/><path class="cls-1" d="M555.23,293.54a13.51,13.51,0,0,1-13.5-13.5v-26.5a13.5,13.5,0,1,1,27,0V280A13.5,13.5,0,0,1,555.23,293.54Z"/><path class="cls-1" d="M581.73,351.6h-26.5a13.5,13.5,0,0,1-13.5-13.5V311.6a13.5,13.5,0,0,1,27,0v13h13a13.5,13.5,0,0,1,0,27Z"/><path class="cls-1" d="M822.21,351.6H760.86a13.5,13.5,0,0,1,0-27h61.35a13.5,13.5,0,0,1,0,27ZM702,351.6H640.63a13.5,13.5,0,0,1,0-27H702a13.5,13.5,0,0,1,0,27Z"/><path class="cls-1" d="M907.6,378.1a13.49,13.49,0,0,1-13.5-13.5v-13h-13a13.5,13.5,0,0,1,0-27h26.5a13.51,13.51,0,0,1,13.5,13.5v26.5A13.5,13.5,0,0,1,907.6,378.1Z"/><path class="cls-1" d="M907.6,451.4H881.1a13.5,13.5,0,0,1,0-27h13v-13a13.5,13.5,0,0,1,27,0v26.5A13.5,13.5,0,0,1,907.6,451.4Z"/><path class="cls-1" d="M829.61,451.4H776a13.5,13.5,0,0,1,0-27h53.63a13.5,13.5,0,0,1,0,27Zm-105.12,0H670.86a13.5,13.5,0,0,1,0-27h53.63a13.5,13.5,0,0,1,0,27Zm-105.12,0H565.74a13.5,13.5,0,0,1,0-27h53.63a13.5,13.5,0,0,1,0,27Zm-105.11,0H460.63a13.5,13.5,0,0,1,0-27h53.63a13.5,13.5,0,0,1,0,27Zm-105.12,0H355.51a13.5,13.5,0,0,1,0-27h53.63a13.5,13.5,0,0,1,0,27ZM304,451.4H250.39a13.5,13.5,0,0,1,0-27H304a13.5,13.5,0,0,1,0,27Z"/><path class="cls-1" d="M172.4,477.9a13.5,13.5,0,0,1-13.5-13.5V437.9a13.51,13.51,0,0,1,13.5-13.5h26.5a13.5,13.5,0,0,1,0,27h-13v13A13.49,13.49,0,0,1,172.4,477.9Z"/><path class="cls-1" d="M172.4,554.27a13.5,13.5,0,0,1-13.5-13.5v-39a13.5,13.5,0,0,1,27,0v39A13.49,13.49,0,0,1,172.4,554.27Z"/><path class="cls-1" d="M198.9,618.17H172.4a13.5,13.5,0,0,1-13.5-13.5v-26.5a13.5,13.5,0,0,1,27,0v13h13a13.5,13.5,0,0,1,0,27Z"/><path class="cls-1" d="M675.86,618.17H627.19a13.5,13.5,0,0,1,0-27h48.67a13.5,13.5,0,0,1,0,27Zm-95.39,0H531.8a13.5,13.5,0,0,1,0-27h48.67a13.5,13.5,0,0,1,0,27Zm-95.39,0H436.41a13.5,13.5,0,1,1,0-27h48.67a13.5,13.5,0,1,1,0,27Zm-95.4,0H341a13.5,13.5,0,0,1,0-27h48.66a13.5,13.5,0,0,1,0,27Zm-95.39,0H245.63a13.5,13.5,0,0,1,0-27h48.66a13.5,13.5,0,1,1,0,27Z"/><path class="cls-1" d="M749.08,644.67a13.5,13.5,0,0,1-13.5-13.5v-13h-13a13.5,13.5,0,0,1,0-27h26.5a13.5,13.5,0,0,1,13.5,13.5v26.5A13.49,13.49,0,0,1,749.08,644.67Z"/><path class="cls-1" d="M749.08,939.3a13.5,13.5,0,0,1-13.5-13.5V875.7a13.5,13.5,0,0,1,27,0v50.1A13.49,13.49,0,0,1,749.08,939.3Zm0-98.21a13.5,13.5,0,0,1-13.5-13.5v-50.1a13.5,13.5,0,0,1,27,0v50.1A13.49,13.49,0,0,1,749.08,841.09Zm0-98.21a13.5,13.5,0,0,1-13.5-13.5v-50.1a13.5,13.5,0,0,1,27,0v50.1A13.49,13.49,0,0,1,749.08,742.88Z"/><path class="cls-1" d="M749.08,1013.91h-26.5a13.5,13.5,0,0,1,0-27h13v-13a13.5,13.5,0,0,1,27,0v26.5A13.5,13.5,0,0,1,749.08,1013.91Z"/><path class="cls-1" d="M661.09,1013.91H597a13.5,13.5,0,0,1,0-27h64.06a13.5,13.5,0,0,1,0,27Z"/><path class="cls-1" d="M535.53,1013.91H509a13.5,13.5,0,0,1,0-27h26.5a13.5,13.5,0,0,1,0,27Z"/></svg>