<svg id="Capa_1" data-name="Capa 1" xmlns="http://www.w3.org/2000/svg" viewBox="0 0 1080 1080"><defs><style>.cls-1{fill:#383838;}</style></defs><path class="cls-1" d="M972.2,326.08,548,113.11a12,12,0,0,0-10.71,0l-429.44,213a12,12,0,0,0-6.67,10.76V764.49a12,12,0,0,0,12,12H221.42a12,12,0,0,0,12-12V456.16H841.35V764.49a12,12,0,0,0,12,12H966.82a12,12,0,0,0,12-12V336.81A12,12,0,0,0,972.2,326.08ZM233.42,432.16V409.9H841.35v22.26Zm721.4,320.33H865.35V397.9a12,12,0,0,0-12-12H221.42a12,12,0,0,0-12,12V752.49H125.18V344.25l417.41-207,412.23,207Z"/><path class="cls-1" d="M420.64,284.44a12,12,0,0,0,12,12H640.38a12,12,0,0,0,0-24H432.64A12,12,0,0,0,420.64,284.44Z"/><path class="cls-1" d="M700.83,621.29H583.21V503.14a12,12,0,0,0-12-12H441.59a12,12,0,0,0-12,12V764.49a12,12,0,0,0,12,12H700.83a12,12,0,0,0,12-12V633.29A12,12,0,0,0,700.83,621.29ZM559.21,752.49H453.59V645.29h39.49v24a12,12,0,0,0,24,0v-24h42.13Zm0-131.2H453.59V515.14h39.49v24a12,12,0,1,0,24,0v-24h42.13Zm129.62,131.2H583.21V645.29h38.43v24a12,12,0,0,0,24,0v-24h43.19Z"/></svg>