<svg xmlns="http://www.w3.org/2000/svg" xmlns:xlink="http://www.w3.org/1999/xlink" viewBox="0 0 1080 1080"><defs><style>.cls-1{fill:#ffc849;}.cls-2{isolation:isolate;}.cls-3{fill:#383838;}.cls-4{clip-path:url(#clip-path);}.cls-5{opacity:0.39;mix-blend-mode:overlay;}.cls-6{fill:none;}.cls-7{fill-rule:evenodd;}</style><clipPath id="clip-path"><path class="cls-1" d="M397.09,1361.93s7.47,17.81-7.43,18.52c-24.93,1.19-29.82-18.44-29.82-18.44l-52.13,266.47,67-2.2,68.17-165.21,5.47-62.66Z"/></clipPath></defs><g class="cls-2"><g id="Capa_1" data-name="Capa 1"><path class="cls-3" d="M988.06,645.78A107.63,107.63,0,0,1,880.55,538.27a13.75,13.75,0,0,0-27.5,0A107.63,107.63,0,0,1,745.54,645.78a13.76,13.76,0,0,0,0,27.51,107.62,107.62,0,0,1,107.51,107.5,13.75,13.75,0,0,0,27.5,0,107.62,107.62,0,0,1,107.51-107.5,13.76,13.76,0,0,0,0-27.51ZM866.8,721.45a135.94,135.94,0,0,0-61.92-61.92,136,136,0,0,0,61.92-61.91,136,136,0,0,0,61.91,61.91A136,136,0,0,0,866.8,721.45Z"/><path class="cls-3" d="M217,216.89a84.69,84.69,0,0,1,84.59,84.59,13.76,13.76,0,1,0,27.51,0,84.69,84.69,0,0,1,84.59-84.59,13.76,13.76,0,1,0,0-27.51,84.69,84.69,0,0,1-84.59-84.59,13.76,13.76,0,0,0-27.51,0A84.69,84.69,0,0,1,217,189.38a13.76,13.76,0,0,0,0,27.51Zm98.35-58.34A112.94,112.94,0,0,0,360,203.14a112.85,112.85,0,0,0-44.58,44.58,112.92,112.92,0,0,0-44.58-44.58A113,113,0,0,0,315.38,158.55Z"/><path class="cls-3" d="M691.93,579.56A720.82,720.82,0,0,0,807.31,394c48.81-114.38,50.93-201.6,51-205.26a13.73,13.73,0,0,0-13.75-14h-.25c-3.65.06-90.88,2.18-205.26,51A721,721,0,0,0,453.48,341.11q-4.8,4.09-9.53,8.29a203,203,0,0,0-87.65-20.25h-.75c-32.72.13-64.16,8.61-93.46,25.22-36,20.39-68.63,53.11-97,97.24a13.76,13.76,0,0,0,13,21.13c27.77-2.79,102.13-3.38,137.41,23.16Q293.68,527.61,274.3,562a13.75,13.75,0,0,0,2.25,16.47l9,9-33.7,77a13.74,13.74,0,0,0,2.88,15.24l98.66,98.67a13.73,13.73,0,0,0,15.24,2.87l77-33.7,9,9a13.76,13.76,0,0,0,16.48,2.26q34.47-19.44,66.3-41.26C565.25,752,564.69,828.38,561.85,856.6A13.75,13.75,0,0,0,583,869.55c44.13-28.42,76.85-61.07,97.24-97,16.61-29.3,25.09-60.74,25.22-93.46a202.57,202.57,0,0,0-21.31-90.51Q688.08,584.07,691.93,579.56ZM240.52,445.33c-11.76-1-22.87-1.34-32.49-1.34l-4.22,0c43.2-57.33,93.77-86.69,150.62-87.34a176.54,176.54,0,0,1,67.48,13,794.08,794.08,0,0,0-90.6,103.73C310.69,458.15,280.25,448.71,240.52,445.33ZM366.17,752.26l-85.38-85.39,25.62-58.56,59.16,59.16,59.16,59.16Zm100.44-22.65L385,648l-81.59-81.59C409.51,383.28,549.3,294.16,648.66,251.54c82.75-35.5,151.82-45.49,181.1-48.26C827,232.57,817,301.63,781.5,384.38,738.88,483.74,649.76,623.54,466.61,729.61Zm124,101.17c.1-10.52-.17-23.18-1.32-36.71-3.38-39.74-12.82-70.18-28.11-90.81a795.36,795.36,0,0,0,103.72-90.61,176.51,176.51,0,0,1,13,67.51C677.27,737,647.91,787.58,590.58,830.78Z"/><path class="cls-3" d="M683.88,422.32a73.17,73.17,0,1,0-21.43,51.74A72.68,72.68,0,0,0,683.88,422.32ZM643,454.61a45.66,45.66,0,1,1,13.37-32.29A45.36,45.36,0,0,1,643,454.61Z"/><path class="cls-3" d="M266.32,766.72a13.74,13.74,0,0,0-19.45,0l-101.1,101.1a13.75,13.75,0,1,0,19.45,19.45l101.1-101.1A13.74,13.74,0,0,0,266.32,766.72Z"/><path class="cls-3" d="M288.88,808.73l-70.33,70.33A13.75,13.75,0,1,0,238,898.51l70.33-70.33a13.75,13.75,0,1,0-19.45-19.45Z"/><path class="cls-3" d="M154,814.49l70.33-70.33a13.75,13.75,0,1,0-19.45-19.45L134.53,795A13.75,13.75,0,1,0,154,814.49Z"/><path class="cls-1" d="M397.09,1361.93s7.47,17.81-7.43,18.52c-24.93,1.19-29.82-18.44-29.82-18.44l-52.13,266.47,67-2.2,68.17-165.21,5.47-62.66Z"/><g class="cls-4"><g class="cls-5"><rect class="cls-6" x="312.77" y="1048.21" width="80.73" height="790.23" transform="translate(-74.12 20.18) rotate(-2.96)"/><path class="cls-7" d="M329,1048.93c.11,0,.11.37.14.61a7.8,7.8,0,0,1,.77,3.64C329.71,1051.53,329.19,1050.86,329,1048.93Z"/><path class="cls-7" d="M323.9,1063.37c.27.31.15,1.94.27,2.77C324,1065.15,323.59,1064.09,323.9,1063.37Z"/><path class="cls-7" d="M325,1068.23c.35,0,.28,1.52.36,2.45C324.86,1070.66,325,1068.92,325,1068.23Z"/><path class="cls-7" d="M324.53,1070.44c.13-.77.18,1.82.34,2.14l-.33,0c0,2.09.47,2.32.47,4.3C324.18,1075.73,324.43,1072.44,324.53,1070.44Z"/><path class="cls-7" d="M325.22,1071c.38-.06.39,1.11.45,2.13A13.57,13.57,0,0,1,325.22,1071Z"/><path class="cls-7" d="M325.2,1072.55a8.86,8.86,0,0,1,.34,4C325.19,1075.89,325.49,1074.55,325.2,1072.55Z"/><path class="cls-7" d="M343.44,1070.81c.26.07.15,1.46.51,1.19,0,.26,0,.3-.1.32,0,.21,0,.41,0,.62A4.75,4.75,0,0,1,343.44,1070.81Z"/><path class="cls-7" d="M343,1074.88a3.28,3.28,0,0,1,.43,1.82A3.25,3.25,0,0,1,343,1074.88Z"/><path class="cls-7" d="M355.91,1074.58a13.6,13.6,0,0,1,.31,3.38C355.94,1077.46,356,1075.61,355.91,1074.58Z"/><path class="cls-7" d="M330.64,1055.6l-.09-1.54c.15,0,.31,0,.31-.34.11.47.37.42.4,1.2-.52-.25-.8,2.55-1.08.41A.4.4,0,0,0,330.64,1055.6Z"/></g></g></g></g></svg>