<svg id="Capa_1" data-name="Capa 1" xmlns="http://www.w3.org/2000/svg" viewBox="0 0 1080 1080"><defs><style>.cls-1{fill:#383838;}</style></defs><path class="cls-1" d="M977.37,422.31,887.09,187a10.14,10.14,0,0,0-9.47-6.51H712.3a8.82,8.82,0,0,0-.89.2,8.92,8.92,0,0,0-1.15-.2H394.82c-.2,0-.37.09-.57.1s-.29-.1-.44-.1H228.47A10.15,10.15,0,0,0,219,187L128.65,422.53c-3.65,10.23-2.73,20.36,2.52,27.82,5.05,7.15,13.31,11.1,23.26,11.1h8.11V837.76a10.14,10.14,0,0,0,10.15,10.14H933.41a10.13,10.13,0,0,0,10.14-10.14V461.45h8.12c10,0,18.22-3.95,23.26-11.1C980.18,442.89,981.1,432.76,977.37,422.31ZM792.79,200.78l62.1,228.58c1.38,3.87,1.38,7.34,0,9.3-1.53,2.17-4.84,2.5-6.67,2.5H796.48c-10.25,0-22-8.58-24.55-17.31L724.81,200.78Zm-90.8,0L749,429a9.5,9.5,0,0,0,.32,1.16c1.41,4.25,1.31,7.94-.28,10.14a5.5,5.5,0,0,1-1.54,1.43H683a33,33,0,0,1-17.4-16.89L643.36,200.78Zm-80,0L645.41,428c0,.11.05.22.07.33a11.2,11.2,0,0,1-2.61,8.29,14,14,0,0,1-10.7,4.54H580.44a19.42,19.42,0,0,1-17-10.78,36.76,36.76,0,0,0,.77-4.48l-1-225.12Zm-138.88,0h59.74l-.94,225.88a33.7,33.7,0,0,0,.64,3.66,18.86,18.86,0,0,1-16.89,10.84H473.94a13,13,0,0,1-9.84-4A13.54,13.54,0,0,1,460.7,427Zm-80,0h59.6L439.64,424.59a33,33,0,0,1-17.53,17.15H357.58a5.54,5.54,0,0,1-1.55-1.43c-1.59-2.2-1.69-5.9-.27-10.14a11.66,11.66,0,0,0,.31-1.16Zm-89.77,0h68L334.36,423.16c-2.7,9.42-14.49,18-24.74,18H257.89c-1.84,0-5.15-.33-6.68-2.5-1.38-2-1.38-5.43.24-10.05ZM154.43,441.16c-1.84,0-5.14-.33-6.68-2.5-1.38-2-1.38-5.43-.08-9.08l87.78-228.8H292.3L232.11,422.53c-3.54,9.93-15.67,18.63-26,18.63ZM923.27,827.61H182.83V462H923.27Zm35.08-388.95c-1.53,2.17-4.84,2.5-6.68,2.5H899.94c-10.64,0-22.28-8.35-25.71-17.87L813.8,200.78h56.85l87.7,228.58C959.73,433.23,959.73,436.7,958.35,438.66Z"/><path class="cls-1" d="M475,803.27H869.51a10.14,10.14,0,0,0,10.14-10.15V490.87a10.14,10.14,0,0,0-10.14-10.15H475a10.14,10.14,0,0,0-10.14,10.15V793.12A10.14,10.14,0,0,0,475,803.27ZM485.09,501H859.37V783H485.09Z"/><path class="cls-1" d="M236.59,803.27H408a10.14,10.14,0,0,0,10.14-10.15v-214a9.91,9.91,0,0,0-1.19-4.53,95.29,95.29,0,0,0-190.51,3.51c0,.18.09.33.1.51s-.1.33-.1.51v214A10.14,10.14,0,0,0,236.59,803.27ZM397.86,783H246.73V589.25H397.86ZM321.79,503A75.16,75.16,0,0,1,396.16,568H247.42A75.16,75.16,0,0,1,321.79,503Z"/><path class="cls-1" d="M271.08,676.48H372.51a10.14,10.14,0,0,0,10.14-10.14V622.72a10.14,10.14,0,0,0-10.14-10.14H271.08a10.14,10.14,0,0,0-10.15,10.14v43.62A10.14,10.14,0,0,0,271.08,676.48Zm10.14-43.61h81.14v23.32H281.22Z"/><path class="cls-1" d="M592.68,661.34l63.9-63.9a10.14,10.14,0,1,0-14.34-14.35L578.34,647a10.14,10.14,0,1,0,14.34,14.35Z"/><path class="cls-1" d="M730.48,562.81l-149.1,149.1a10.14,10.14,0,1,0,14.34,14.34l149.1-149.1a10.14,10.14,0,0,0-14.34-14.34Z"/></svg>