<svg id="Capa_1" data-name="Capa 1" xmlns="http://www.w3.org/2000/svg" viewBox="0 0 1030 1080"><defs><style>.cls-1{fill:#383838;}</style></defs><path class="cls-1" d="M371.94,303.67H323.26a32.79,32.79,0,0,0-32.76,32.76V817.34a32.79,32.79,0,0,0,32.76,32.75H706.74a32.79,32.79,0,0,0,32.76-32.75V336.43a32.79,32.79,0,0,0-32.76-32.76H658.06c-.91-18-15-32.39-32.17-32.39H594.34a50.1,50.1,0,0,0-49.26-41.37h-53a50.1,50.1,0,0,0-49.26,41.37H404.11C386.91,271.28,372.85,285.65,371.94,303.67Zm284.67,50.18h23.74V778.58H349.06V353.85h24.33c4.17,13.8,16.36,23.81,30.72,23.81H625.89C640.25,377.66,652.44,367.65,656.61,353.85ZM716,336.43V817.34a9.28,9.28,0,0,1-9.27,9.27H323.26a9.28,9.28,0,0,1-9.27-9.27V336.43a9.28,9.28,0,0,1,9.27-9.27h48.6v3.21H337.31a11.74,11.74,0,0,0-11.74,11.74V790.32a11.75,11.75,0,0,0,11.74,11.75H692.09a11.75,11.75,0,0,0,11.75-11.75V342.11a11.74,11.74,0,0,0-11.75-11.74h-34v-3.21h48.6A9.28,9.28,0,0,1,716,336.43ZM395.34,305.5c0-5.92,3.94-10.74,8.77-10.74h49.7A11.74,11.74,0,0,0,465.56,283v-3.09a26.57,26.57,0,0,1,26.53-26.54h53a26.57,26.57,0,0,1,26.53,26.54V283a11.74,11.74,0,0,0,11.75,11.74h42.53c4.83,0,8.77,4.82,8.77,10.74v37.94c0,5.92-3.94,10.74-8.77,10.74H404.11c-4.83,0-8.77-4.82-8.77-10.74V305.5Z"/><path class="cls-1" d="M512.7,324.29A34.32,34.32,0,1,0,478.38,290,34.36,34.36,0,0,0,512.7,324.29Zm0-45.15A10.83,10.83,0,1,1,501.87,290,10.84,10.84,0,0,1,512.7,279.14Z"/><path class="cls-1" d="M368.06,442.14a11.74,11.74,0,0,0,11.74,11.74h265a11.75,11.75,0,1,0,0-23.49h-265A11.74,11.74,0,0,0,368.06,442.14Z"/><path class="cls-1" d="M538.63,511.85H379.8a11.75,11.75,0,0,0,0,23.49H538.63a11.75,11.75,0,0,0,0-23.49Z"/><path class="cls-1" d="M538.63,601.16H379.8a11.74,11.74,0,0,0,0,23.48H538.63a11.74,11.74,0,0,0,0-23.48Z"/><path class="cls-1" d="M538.63,690.47H379.8a11.74,11.74,0,1,0,0,23.48H538.63a11.74,11.74,0,1,0,0-23.48Z"/><path class="cls-1" d="M626.32,485.65l-29.8,31.13-8.2-11.13a11.74,11.74,0,0,0-18.91,13.93L585.9,542a11.79,11.79,0,0,0,8.7,4.75l.75,0a11.74,11.74,0,0,0,8.48-3.62l39.46-41.22a11.74,11.74,0,1,0-17-16.24Z"/><path class="cls-1" d="M626.32,578.88,596.52,610l-8.2-11.14a11.74,11.74,0,1,0-18.91,13.93l16.49,22.38a11.72,11.72,0,0,0,8.7,4.75c.25,0,.5,0,.75,0a11.74,11.74,0,0,0,8.48-3.62l39.46-41.22a11.74,11.74,0,0,0-17-16.24Z"/><path class="cls-1" d="M626.32,672.12l-29.8,31.13-8.2-11.14a11.75,11.75,0,1,0-18.91,13.94l16.49,22.37a11.72,11.72,0,0,0,8.7,4.75q.38,0,.75,0a11.71,11.71,0,0,0,8.48-3.63l39.46-41.21a11.74,11.74,0,1,0-17-16.24Z"/></svg>