<svg id="Capa_1" data-name="Capa 1" xmlns="http://www.w3.org/2000/svg" viewBox="0 0 1120 1080.93"><defs><style>.cls-1{fill:#f5f5f5;}.cls-2,.cls-5{fill:#e1e1e1;}.cls-12,.cls-3{fill:#375a64;}.cls-4{fill:#ffdb59;}.cls-5{opacity:0.81;}.cls-6{opacity:0.15;}.cls-7{fill:#1a2e35;}.cls-8{fill:#2b454e;}.cls-13,.cls-9{fill:#fff;}.cls-9{opacity:0.9;}.cls-10{fill:none;stroke:#ffdb59;stroke-miterlimit:10;stroke-width:2px;}.cls-11{fill:#f0f0f0;}.cls-12,.cls-14,.cls-20{opacity:0.5;}.cls-15{fill:#fddc59;}.cls-16{fill:#ffaaa8;}.cls-17{opacity:0.3;}.cls-18{fill:#9d832a;}.cls-19{fill:#ff9090;}.cls-21{fill:#ffbea7;}.cls-22{opacity:0.2;}.cls-23{opacity:0.6;}.cls-24{fill:#e7e7e7;}.cls-25{fill:#ff9875;}.cls-26{opacity:0.25;}.cls-27{opacity:0.1;}.cls-28{fill:#f1c6a1;}.cls-29{fill:#cca18a;}</style></defs><ellipse id="Floor" class="cls-1" cx="560" cy="766.06" rx="533.52" ry="308.03"/><ellipse id="Shadow" class="cls-2" cx="651.32" cy="878.78" rx="98.1" ry="56.64"/><ellipse id="Shadow-2" data-name="Shadow" class="cls-2" cx="906.53" cy="845.25" rx="98.1" ry="56.64"/><ellipse id="Shadow-3" data-name="Shadow" class="cls-2" cx="369.95" cy="963.7" rx="98.1" ry="56.64"/><path class="cls-3" d="M211.51,856.12a11.47,11.47,0,0,1-5-9.07V353a11.85,11.85,0,0,1,5.35-9.27L793.07,8.18A11.47,11.47,0,0,1,803.43,8a11.47,11.47,0,0,1,5,9.07V511.11a11.83,11.83,0,0,1-5.35,9.27L221.87,855.93A11.47,11.47,0,0,1,211.51,856.12Z"/><path class="cls-4" d="M220.86,856.39a1,1,0,0,1-.23.07,2.16,2.16,0,0,1-.51.2,1.69,1.69,0,0,1-.4.12,3.21,3.21,0,0,1-.74.18,1.58,1.58,0,0,1-.49.09c-.25.05-.55.1-.82.13a10.32,10.32,0,0,1-6.15-1.06,11.42,11.42,0,0,1-5-9.07l0-430.72,10.05,5.81V852.83c0,2.42,1.21,3.83,3,3.83a2.48,2.48,0,0,0,.71-.1.3.3,0,0,0,.13,0A2.74,2.74,0,0,0,220.86,856.39Z"/><path class="cls-5" d="M220.86,856.39a1,1,0,0,1-.23.07,2.16,2.16,0,0,1-.51.2,1.69,1.69,0,0,1-.4.12,3.21,3.21,0,0,1-.74.18,1.58,1.58,0,0,1-.49.09c-.25.05-.55.1-.82.13a10.32,10.32,0,0,1-6.15-1.06,11.42,11.42,0,0,1-5-9.07l0-430.72,10.05,5.81V852.83c0,2.42,1.21,3.83,3,3.83a2.48,2.48,0,0,0,.71-.1.3.3,0,0,0,.13,0A2.74,2.74,0,0,0,220.86,856.39Z"/><polygon class="cls-4" points="216.53 422.14 206.48 416.33 206.48 511.99 216.53 517.84 216.53 422.14"/><polygon class="cls-6" points="216.53 422.14 206.48 416.33 206.48 511.99 216.53 517.84 216.53 422.14"/><path class="cls-7" d="M218.09,353.52a10.93,10.93,0,0,0-1.56,5.26v63.36l-10.05-5.81V353a4.57,4.57,0,0,1,0-.64,12.29,12.29,0,0,1,.22-1.33,13.19,13.19,0,0,1,1.33-3.31Z"/><path class="cls-8" d="M808.44,17.06V45.63l-426.05,246c-2.94,1.71-5.34.32-5.34-3.09V277.7c0-3.41-2.39-4.8-5.36-3.09L242,349.52a11.83,11.83,0,0,0-5.36,9.26V369.6a11.84,11.84,0,0,1-5.34,9.26l-14.72,8.5V358.78a11.87,11.87,0,0,1,5.34-9.26L803.1,14C806,12.26,808.44,13.65,808.44,17.06Z"/><path class="cls-4" d="M808.46,511.1a11.81,11.81,0,0,1-5.36,9.27L221.87,855.92c-2.94,1.7-5.34.32-5.34-3.09V387.36l14.72-8.5c2.94-1.7,7.74-27.63,10.7-29.34l127.57-73.66c3-1.7,9.93,17.45,12.87,15.74l426.05-246V80.41Z"/><path class="cls-9" d="M808.46,511.1a11.81,11.81,0,0,1-5.36,9.27L221.87,855.92c-2.94,1.7-5.34.32-5.34-3.09V387.36l14.72-8.5c2.94-1.7,7.74-27.63,10.7-29.34l127.57-73.66c3-1.7,9.93,17.45,12.87,15.74l426.05-246V80.41Z"/><path class="cls-10" d="M808.46,511.1a11.81,11.81,0,0,1-5.36,9.27L221.87,855.92c-2.94,1.7-5.34.32-5.34-3.09V387.36l14.72-8.5c2.94-1.7,7.74-27.63,10.7-29.34l127.57-73.66c3-1.7,9.93,17.45,12.87,15.74l426.05-246V80.41Z"/><polygon class="cls-4" points="216.53 422.14 216.53 517.84 808.44 176.15 808.44 80.41 216.53 422.14"/><path class="cls-11" d="M808.44,45.63V80.41L216.53,422.14V387.36l11-6.37c2.94-1.7,3.92-4.29,5.33-9.26l3.73-13c1.18-4.49,2.4-7.55,5.36-9.26l127.57-73.66c3-1.7,5.28-1.89,7.53,1.84l4.58,8.3c1.68,2.9,2.52,4.6,5.45,2.9Z"/><path class="cls-4" d="M783.37,35c3.71-2.15,6.72-.41,6.72,3.88a14.9,14.9,0,0,1-6.72,11.66c-3.72,2.14-6.73.4-6.73-3.89A14.85,14.85,0,0,1,783.37,35Z"/><path class="cls-4" d="M759.14,49c3.72-2.15,6.73-.41,6.73,3.88a14.88,14.88,0,0,1-6.73,11.66c-3.72,2.14-6.73.4-6.73-3.89A14.85,14.85,0,0,1,759.14,49Z"/><path class="cls-4" d="M734.91,62.91c3.72-2.14,6.73-.4,6.73,3.89a14.85,14.85,0,0,1-6.73,11.65c-3.71,2.15-6.73.41-6.73-3.88A14.91,14.91,0,0,1,734.91,62.91Z"/><path class="cls-12" d="M241.06,389.87l-8.39,4.84,3.2-6.15a1.52,1.52,0,0,0,.06-1.5c-.24-.3-.67-.09-1,.45l-4.55,8.76,0,0a3,3,0,0,0-.12.32s0,.07,0,.11a2.32,2.32,0,0,0-.06.45,1.45,1.45,0,0,0,.06.39l0,.06a.63.63,0,0,0,.12.18l0,0,4.55,3.5a.36.36,0,0,0,.44,0,1.27,1.27,0,0,0,.51-.64c.25-.58.22-1.22-.06-1.44l-3.2-2.46,8.39-4.84a1.78,1.78,0,0,0,.68-1.43C241.74,389.94,241.44,389.65,241.06,389.87Z"/><path class="cls-12" d="M248.08,385.82l8.39-4.85-3.2-2.46c-.28-.21-.31-.85-.06-1.43s.67-.86.95-.65l4.55,3.5,0,0a.69.69,0,0,1,.12.19s0,0,0,.06a1.4,1.4,0,0,1,.05.38,2.4,2.4,0,0,1-.05.46l0,.1a2.53,2.53,0,0,1-.12.33l0,0-4.55,8.76a1.21,1.21,0,0,1-.45.51.36.36,0,0,1-.5-.06,1.52,1.52,0,0,1,.06-1.5l3.2-6.16-8.39,4.85c-.38.21-.68-.08-.68-.65A1.76,1.76,0,0,1,248.08,385.82Z"/><path class="cls-12" d="M275.61,361.65c-.05-.51-.49-.45-.71.1l-1.15,2.81c-2-.21-4.34,1.71-5.94,5.1-2.08,4.4-2.08,9.61,0,11.61a3,3,0,0,0,3.77.23,10.35,10.35,0,0,0,3.77-4.58,1.45,1.45,0,0,0,0-1.47c-.27-.25-.69,0-1,.55-1.55,3.28-4.08,4.75-5.63,3.25s-1.55-5.38,0-8.67c1.11-2.34,2.7-3.72,4.08-3.81l-.86,2.12c-.23.55,0,1.07.33.84l3.42-2.24a1.13,1.13,0,0,0,.39-.94Z"/><path class="cls-12" d="M365.84,291.74l3.06-6.48a2,2,0,0,0,0-2c-.36-.35-.95,0-1.31.76l-3.06,6.47-3.06-2.94c-.36-.35-.94,0-1.31.76a2,2,0,0,0,0,2l3.06,2.95-3.06,6.48a2,2,0,0,0,0,2,.51.51,0,0,0,.66,0,1.72,1.72,0,0,0,.65-.79l3.06-6.48,3.06,2.94a.51.51,0,0,0,.66,0,1.78,1.78,0,0,0,.65-.79,2,2,0,0,0,0-2Z"/><path class="cls-13" d="M286.75,369.61V358.79a11.82,11.82,0,0,1,5.35-9.26L773,72c3-1.7,5.35-.32,5.35,3.09V85.93A11.82,11.82,0,0,1,773,95.19L292.1,372.7C289.15,374.4,286.75,373,286.75,369.61Z"/><path class="cls-2" d="M765.73,95.8a1,1,0,0,1-.4-.08,1.23,1.23,0,0,1-.67-1.38l.54-4.48s0,0,0,0L763,88.25a1.22,1.22,0,0,1-.48-1,2.16,2.16,0,0,1,.8-1.69l3.14-2.42a.89.89,0,0,0,.22-.36l1.4-4.6a1.74,1.74,0,0,1,1.38-1.34,1,1,0,0,1,1,.61h0l1.27,2.69L774.63,79a1,1,0,0,1,1.17.27,1.68,1.68,0,0,1,0,1.91l-2.27,4.26a.82.82,0,0,0-.1.4l.54,3.86a2.2,2.2,0,0,1-.61,1.73,1.29,1.29,0,0,1-1.06.43l-2.81-.35L766.8,95.2A1.37,1.37,0,0,1,765.73,95.8ZM764,87.19l2.17,1.56A1.34,1.34,0,0,1,766.6,90l-.44,3.69,2.34-3a1.34,1.34,0,0,1,1.2-.59l2.82.35s.12-.37.09-.57l-.53-3.86a2.11,2.11,0,0,1,.25-1.25l2.27-4.26-2.6,1a1,1,0,0,1-1.35-.54l-1.17-2.48s0,0,0,0l-1.41,4.6a2.16,2.16,0,0,1-.7,1.06l-3.14,2.42A.85.85,0,0,0,764,87.19Z"/><g class="cls-14"><path class="cls-3" d="M784.65,70.7a1.85,1.85,0,0,1-.92-3.45l15-8.69a1.85,1.85,0,1,1,1.86,3.2l-15,8.69A1.83,1.83,0,0,1,784.65,70.7Z"/><path class="cls-3" d="M784.65,79.39a1.85,1.85,0,0,1-.92-3.45l15-8.69a1.85,1.85,0,1,1,1.86,3.21l-15,8.69A1.82,1.82,0,0,1,784.65,79.39Z"/><path class="cls-3" d="M784.65,88.09a1.85,1.85,0,0,1-.92-3.46l15-8.69a1.85,1.85,0,1,1,1.86,3.21l-15,8.69A1.83,1.83,0,0,1,784.65,88.09Z"/></g><polygon class="cls-2" points="216.53 387.36 216.53 422.14 206.48 416.33 206.48 381.58 216.53 387.36"/><polygon class="cls-4" points="242.21 540.41 405.92 445.89 405.92 712.77 241.74 807.01 242.21 540.41"/><path class="cls-4" d="M442,430,639.48,316c4-2.29,7.19-.55,7.19,3.89s-3.21,9.91-7.17,12.22L442,447.37c-4,2.31-7.16.47-7.16-4.11v-.83A15.89,15.89,0,0,1,442,430Z"/><path class="cls-4" d="M439.94,464.53,766.72,275.86c2.84-1.64,5.14-.47,5.14,2.6a11,11,0,0,1-5.14,8.52L439.94,475.65c-2.83,1.63-5.13.47-5.13-2.6A11,11,0,0,1,439.94,464.53Z"/><path class="cls-4" d="M439.94,486.85,766.72,298.19c2.84-1.64,5.14-.48,5.14,2.59a11,11,0,0,1-5.14,8.53L439.94,498c-2.83,1.64-5.13.48-5.13-2.59A11,11,0,0,1,439.94,486.85Z"/><path class="cls-4" d="M439.94,509.18,766.72,320.51c2.84-1.64,5.14-.47,5.14,2.6a11,11,0,0,1-5.14,8.52L439.94,520.3c-2.83,1.63-5.13.47-5.13-2.6A11,11,0,0,1,439.94,509.18Z"/><path class="cls-4" d="M439.94,531.5,766.72,342.83c2.84-1.63,5.14-.47,5.14,2.6a11,11,0,0,1-5.14,8.52L439.94,542.62c-2.83,1.64-5.13.47-5.13-2.6A11,11,0,0,1,439.94,531.5Z"/><path class="cls-4" d="M439.94,553.82l228-132.68c2.83-1.63,5.13-.47,5.13,2.6a11,11,0,0,1-5.13,8.52l-228,132.68c-2.83,1.64-5.13.48-5.13-2.59A11,11,0,0,1,439.94,553.82Z"/><path class="cls-4" d="M439.94,598.47,766.72,409.81c2.84-1.64,5.14-.48,5.14,2.59a11,11,0,0,1-5.14,8.53L439.94,609.59c-2.83,1.64-5.13.48-5.13-2.59A11,11,0,0,1,439.94,598.47Z"/><path class="cls-4" d="M439.94,620.8,766.72,432.13c2.84-1.64,5.14-.47,5.14,2.6a11,11,0,0,1-5.14,8.52L439.94,631.92c-2.83,1.63-5.13.47-5.13-2.6A11,11,0,0,1,439.94,620.8Z"/><path class="cls-4" d="M439.94,643.12,766.72,454.45c2.84-1.63,5.14-.47,5.14,2.6a11,11,0,0,1-5.14,8.53L439.94,654.24c-2.83,1.64-5.13.48-5.13-2.6A11,11,0,0,1,439.94,643.12Z"/><path class="cls-4" d="M439.94,665.45,560,595.37c2.84-1.64,5.13-.48,5.13,2.59a11,11,0,0,1-5.13,8.53L439.94,676.56c-2.83,1.64-5.13.48-5.13-2.59A11,11,0,0,1,439.94,665.45Z"/><path class="cls-15" d="M325.68,443.52c-3,1.61-5.55,2.14-7.67,1.58s-3.83-2.15-5-4.74a26,26,0,0,1-1.8-10.34L311,410.57l11.24-6.07.16,17.83a13.75,13.75,0,0,0,.78,5.18c.43.92,1.19,1.07,2.33.45a4.64,4.64,0,0,0,2.32-3,20.69,20.69,0,0,0,.68-6l-.16-17.83,11.25-6.07.17,19.45a42.47,42.47,0,0,1-1.59,12.17,31.39,31.39,0,0,1-4.87,10.08A23.3,23.3,0,0,1,325.68,443.52Z"/><path class="cls-13" d="M321.66,422.75a14.84,14.84,0,0,0,.89,5.75q.85,1.88,3,.72a6.24,6.24,0,0,0,3-4,23.33,23.33,0,0,0,.78-6.66L329.17,402l9.69-5.23L339,415a40.16,40.16,0,0,1-1.5,11.49,29.44,29.44,0,0,1-4.54,9.4,22.23,22.23,0,0,1-7.32,6.38q-4.29,2.31-7.32,1.52c-2-.52-3.58-2-4.67-4.42a24.5,24.5,0,0,1-1.7-9.76l-.16-18.2,9.69-5.23Z"/><path class="cls-15" d="M290.52,462.51c-3,1.6-5.54,2.13-7.66,1.58s-3.84-2.16-5-4.74a26.15,26.15,0,0,1-1.8-10.34l-.18-19.45,11.25-6.07.16,17.82a13.48,13.48,0,0,0,.78,5.18c.42.93,1.18,1.08,2.32.46a4.73,4.73,0,0,0,2.33-3,21,21,0,0,0,.68-6l-.16-17.82,11.24-6.07.17,19.45a42.17,42.17,0,0,1-1.59,12.17,31.59,31.59,0,0,1-4.87,10.08A23.2,23.2,0,0,1,290.52,462.51Z"/><path class="cls-13" d="M286.5,441.73a14.9,14.9,0,0,0,.89,5.76q.86,1.88,3,.71a6.19,6.19,0,0,0,3-3.95,23.3,23.3,0,0,0,.78-6.65L294,421l9.69-5.23.17,18.2a40.21,40.21,0,0,1-1.49,11.49,29.4,29.4,0,0,1-4.55,9.39,22,22,0,0,1-7.32,6.38q-4.29,2.33-7.32,1.53a7.19,7.19,0,0,1-4.67-4.42,24.59,24.59,0,0,1-1.7-9.77l-.16-18.2,9.69-5.23Z"/><path class="cls-15" d="M310.05,452c-2.95,1.59-5.54,2.11-7.71,1.54a8,8,0,0,1-5.11-4.66,23.63,23.63,0,0,1-1.87-9.94A39.19,39.19,0,0,1,297,427,33.06,33.06,0,0,1,302,417a23.37,23.37,0,0,1,7.66-6.74,11.75,11.75,0,0,1,3.87-1.39,8.46,8.46,0,0,1,2.95,0,4.45,4.45,0,0,1,1.84.74l.55.44-5.38,16-.67-.71a2.08,2.08,0,0,0-.53-.36,2.25,2.25,0,0,0-1-.23,2.89,2.89,0,0,0-1.43.43,5,5,0,0,0-1.8,1.78,11.14,11.14,0,0,0-1.3,2.88,10.83,10.83,0,0,0-.45,3.21,6.63,6.63,0,0,0,.51,2.72,2.78,2.78,0,0,0,1.33,1.47A1.92,1.92,0,0,0,310,437a5.5,5.5,0,0,0,1.89-1.66,12.16,12.16,0,0,0,1.09-1.75l.65-1.44,5.49,10.05-.53,1a22.89,22.89,0,0,1-1.73,2.68,25.06,25.06,0,0,1-2.87,3.23A17.69,17.69,0,0,1,310.05,452Z"/><path class="cls-13" d="M310,438.26a6.42,6.42,0,0,0,2.24-2,13.18,13.18,0,0,0,1.27-2.07l4.56,8.34a20.84,20.84,0,0,1-1.59,2.45,23,23,0,0,1-2.72,3,17.2,17.2,0,0,1-3.71,2.69q-4.26,2.3-7.36,1.48a7.46,7.46,0,0,1-4.8-4.35,22.4,22.4,0,0,1-1.75-9.36,37.07,37.07,0,0,1,1.57-11.17,30.76,30.76,0,0,1,4.67-9.42,22.25,22.25,0,0,1,7.32-6.42,11.32,11.32,0,0,1,3.68-1.33,7.92,7.92,0,0,1,2.81,0,4.07,4.07,0,0,1,1.68.67l-4.48,13.25a2.5,2.5,0,0,0-.64-.44,2.65,2.65,0,0,0-1.2-.29,3.52,3.52,0,0,0-1.68.51,6.14,6.14,0,0,0-2.21,2.19,13.66,13.66,0,0,0-2.1,7.35,8,8,0,0,0,.62,3.29,3.3,3.3,0,0,0,1.59,1.77A2.4,2.4,0,0,0,310,438.26Z"/><polygon class="cls-15" points="268.14 474.6 267.73 428.66 259.42 433.14 259.28 416.95 287.13 401.9 287.28 418.1 278.97 422.59 279.38 468.52 268.14 474.6"/><path class="cls-13" d="M268.49,427l-8.3,4.48-.13-13.69,26.31-14.2.12,13.68-8.3,4.49.41,45.94-9.7,5.23Z"/><path class="cls-15" d="M290.59,427.79a.79.79,0,0,1-1.18-.52L283.69,413a14.29,14.29,0,0,1-.95-5.35c-.06-6.82,3.31-14.22,7.52-16.5a4.19,4.19,0,0,1,5.45.76c1.47,1.6,2.29,4.3,2.3,7.63v0a20.2,20.2,0,0,1-.29,3.24l-.23,1.34c-.31,1.5-.31,1.5-.46,2h0L291.75,426A2.94,2.94,0,0,1,290.59,427.79Zm-.26-28.65c-1.54.84-2.78,3.54-2.75,6s1.29,3.86,2.83,3,2.78-3.54,2.76-6S291.87,398.31,290.33,399.14Z"/><path class="cls-13" d="M297.23,399.92c0-6.17-3.17-9.58-7-7.53s-6.81,8.68-6.76,14.82a13.05,13.05,0,0,0,.86,4.81h0l5.72,14.3c.21.52.77.22,1-.52l5.29-19.87c.11-.39.22-.77.31-1.17h0A20.93,20.93,0,0,0,297.23,399.92Zm-6.81,9.54c-2,1.06-3.59-.66-3.62-3.86s1.55-6.65,3.52-7.71,3.59.66,3.62,3.86S292.4,408.4,290.42,409.46Z"/><path class="cls-16" d="M876.62,537.31c17.37-56.39,34.27-93.52,17-105h0c-16,3-23.23,10.91-26.63,32.06-3.58,22.18-11,53.08-15.35,70.92-3.47,14.25-10.23,32.16-16,43.06a9.09,9.09,0,0,1-4.73,4.17c-5.36,2.09-7.93,4.83-12.29,8-3.42,2.44-5.94,2.71-5.79,3.74.21,1.32,1.75,3.7,5.37,3.3a32.08,32.08,0,0,0,7.47-2.4s-3.16,8.49-9.35,13.67c-8.4,7-7.15,14,6.37,14.87,4.85.29,16.07-4.13,26.46-21.84,3-5.1,6.48-13.45,9.27-20.41C865.72,563.25,873.14,548.59,876.62,537.31Z"/><path class="cls-4" d="M896.74,431.63s-13.37-.7-21.47,8.23-17.56,62.33-17.56,62.33,8.88,12.19,32.26,7.2Z"/><path class="cls-17" d="M896.74,431.63s-13.37-.7-21.47,8.23-17.56,62.33-17.56,62.33,8.88,12.19,32.26,7.2Z"/><rect class="cls-16" x="941.34" y="810.37" width="17.95" height="32"/><polygon class="cls-16" points="897.05 808.66 879.11 809.31 878.21 775.44 897.05 774.79 897.05 808.66"/><path class="cls-8" d="M961.81,533.27c0,17.86-2.63,161.53-2.63,161.53.42,5.14,5.05,14.61,4.05,34.34-1.36,26.8-3.18,97.24-3.18,97.24s-8.71,5.3-20,.41c0,0-17-97.56-20.2-124.12-2.8-23.18-7.57-101.23-7.57-101.23l-9.73,90.75a110.64,110.64,0,0,1,2.23,29.71c-.84,12.29-6.61,76.27-6.61,76.27s-8.45,6-20.73,1.66c0,0-10.21-96.37-10.42-107.64-.23-12.85,6-159.11,6-159.11Z"/><path class="cls-7" d="M941.34,833.15v-2.67c-1.72.77-5.71,16.63-12.83,23.4-5.67,5.38-13.39,11.59-15.35,17.59-2,6.23,10.75,9.68,16,8.7,6.15-1.13,16.8-5.64,19.48-9.82S952.6,860,954.77,857s7.19-6.49,8.36-10c.65-1.95-.12-6.21-1-9.81-.83-3.31-1.73-6.94-2.81-6.63,0,.4,0,2,0,2-1.31,1.51-4.91,3-9,3.16C947.69,835.78,941.31,835.24,941.34,833.15Z"/><path class="cls-7" d="M878.92,803.54c-.93,0-1.69,1.41-3.75,3.72a39.28,39.28,0,0,1-10.56,7.92c-6.72,3.5-19.79,8.89-25.7,11.67-3.69,1.73-3.52,6.38.3,9s13,4.55,24.11,2c6-1.41,13.88-7.21,18.85-6.9s14.27.24,17.94-2.39,2.2-8.26,1.16-13.09c-1.13-5.28-2.54-13.5-4.22-13.14v1.81c-2.16,3.41-13.29,4.79-18,2.29Z"/><path class="cls-7" d="M912.3,601.44s-14.34-4.21-25-14.92c0,0,4.82,9.4,19.16,18.16l-3.06,81Z"/><path class="cls-4" d="M952.47,435.89s14,1.29,13,28.05l-3.1,42.63.09,64c-13.2,15-71.72,13.86-91.76-1.2,0,0,2.27-75.71,3.63-104.84,1-20.71,5.72-31.13,26.08-33.41l25,1.1Z"/><polygon class="cls-17" points="912.59 449.93 909.37 472.4 901.86 472.26 910.33 473.6 912.59 449.93"/><path class="cls-7" d="M931.31,375.59c0,15.37-12,27.83-26.73,27.83s-26.05-12.48-26.72-27.83c-1.18-27.18,12-27.84,26.72-27.84S931.31,360.22,931.31,375.59Z"/><path class="cls-7" d="M946.54,389.39s-4.1,20.06-5.74,23.35a8.78,8.78,0,0,1-5,4.24l.28-14.11Z"/><path class="cls-7" d="M941.39,360.66s2.94-.74,6.07,4.14c2.67,4.18,3.28,13.58-.92,24.59l-7.72.92Z"/><path class="cls-16" d="M936.5,390.32c1.55,1,3.76-2.13,5.67-4.21s8.14-4.93,11.25,1.9-2.75,16.14-7.65,17.74c-8.46,2.77-9.73-2.88-9.73-2.88l-.64,31.77c-11.23,17.36-36.66,16.73-27.51-.84l0-9.67s-7.66,1.21-11.4.61c-6.22-1-10.13-6.12-12-13.13-3-11.26-4.18-20.35-1.61-42.5,2.82-24.27,29.93-24.52,44.57-14.93S936.5,390.32,936.5,390.32Z"/><path class="cls-18" d="M935.54,427.51s-3.95,8.54-11,13.78a31.17,31.17,0,0,1-13.31,5.65s6.59,4.36,9.39,10.54,22.55-10.82,22.38-22.89c0,0-3.11-12.11-7.35-12.89Z"/><path class="cls-18" d="M911.24,446.94s-6.09-3-3.35-13.14l0-9.67-2.67.35a23.46,23.46,0,0,0-6.42,11.12c-.61,2.77-2.11,16.8.57,19.58C901.82,457.72,905.79,447.7,911.24,446.94Z"/><path class="cls-7" d="M926.11,363.85a4,4,0,0,1,2.09.14c2.3,1.05,2.79,8.19,3.2,10.25,1.36,7,2.49,18.74,5.1,18.79.78,0,3.74-5.1,5.67-6.92,2.67-2.53-.78-25.45-.78-25.45s2.57-5.7-2.57-11.59c-4.81-5.51-12.36-6.73-19.26-7.11-8.14-.45-16.39.17-24.4-1.61a67.22,67.22,0,0,0-7.65-1.64.94.94,0,0,0-.7.12c-.26.21-.22.61-.15.94a24.86,24.86,0,0,0,2.53,6.88,62.88,62.88,0,0,1-14.05-2.76,1.31,1.31,0,0,0-.8-.09c-.54.17-.63.88-.6,1.44.33,5.76,3,14.42,7.72,17.8,3.65,2.65,9.38,4.26,13.88,4.38C907.91,367.74,915.71,365.09,926.11,363.85Z"/><path class="cls-7" d="M941.38,361.87l9.36-5.24a5.08,5.08,0,0,0-7.09-2.44A6,6,0,0,0,941.38,361.87Z"/><path class="cls-19" d="M907.91,424.13s13.88-2.92,18.73-5.6c3.25-1.8,5.93-4.92,6.71-6.92a23.31,23.31,0,0,1-3.81,8.16c-3.55,4.72-21.63,8.2-21.63,8.2Z"/><path class="cls-7" d="M911.24,386.71a2.79,2.79,0,1,0,2.79-3A2.9,2.9,0,0,0,911.24,386.71Z"/><path class="cls-7" d="M915.71,374.71l5.95,3.42a3.79,3.79,0,0,0-1.38-4.93A3.26,3.26,0,0,0,915.71,374.71Z"/><path class="cls-19" d="M909.17,406.72l-6.35,2.48a3.3,3.3,0,0,0,4.31,2.2A3.77,3.77,0,0,0,909.17,406.72Z"/><path class="cls-7" d="M885.73,377.26l5.42-4.35a3.21,3.21,0,0,0-4.72-.76A3.86,3.86,0,0,0,885.73,377.26Z"/><path class="cls-7" d="M888.11,385.88a2.79,2.79,0,1,0,2.78-3A2.92,2.92,0,0,0,888.11,385.88Z"/><polygon class="cls-19" points="903 383.56 902.67 401.13 892.7 398.84 903 383.56"/><path class="cls-4" d="M979.79,401.22c4-5.31,12.11,6.48,15.86,14.61s3.81,12.73.74,16-8.88,1.27-14.7-6.43S977.5,405.14,979.79,401.22Z"/><path class="cls-20" d="M979.79,401.22c4-5.31,12.11,6.48,15.86,14.61s3.81,12.73.74,16-8.88,1.27-14.7-6.43S977.5,405.14,979.79,401.22Z"/><path class="cls-16" d="M1008,402.8c-14.14,33.28-34,51.89-42.91,73.24-11.66-.79-20.73-28.91-12.06-40.93,0,0,34.1-36.92,37.19-51.42,2.74-12.88,6.42-34.12,6.1-45a7.48,7.48,0,0,0-2.1-4.83c-3.57-3.85-3.58-6.94-5.88-11.19-1.79-3.32-3.75-4.56-3.19-5.3.72-1,3-2.21,5.81-.43,1.41.89,2.34,1.94,4.4,4.22a24.52,24.52,0,0,0-2-12.47c-4-8.95-3-13.52,9.08-10.33,7.57,2,12.32,8.3,13.46,26.5.32,5.25.75,16.1.13,22.73-1.31,14-2.16,28.61-3.88,40.21A61.32,61.32,0,0,1,1008,402.8Z"/><path class="cls-4" d="M949.58,435.5l30.08-34.37s-3.57,8.38,4.25,20.57,12.48,10.09,12.48,10.09-17.75,25.91-22.51,34.59-9.7,16-9.7,16-1.19,3.07-5.61,3.07S942.45,465.85,949.58,435.5Z"/><path class="cls-17" d="M949.58,435.5l30.08-34.37s-3.57,8.38,4.25,20.57,12.48,10.09,12.48,10.09-17.75,25.91-22.51,34.59-9.7,16-9.7,16-1.19,3.07-5.61,3.07S942.45,465.85,949.58,435.5Z"/><polygon class="cls-19" points="705.63 512.76 719.79 531.62 704.58 549.05 684.98 526.13 705.63 512.76"/><path class="cls-3" d="M659.3,469.9c12.35.58,18.24,2.49,24.7,10.1,6.31,7.44,38.81,54.39,38.81,54.39s-5.72,16-18.23,14.66L681.84,525.6Z"/><path class="cls-7" d="M598.7,861.36a90.18,90.18,0,0,0-1.42,14.88c-.17,9-1.83,12.23-2,19.64-.25,8.46,1.21,11.63,4.65,16.39s12.45,9.07,16.26,1,3.32-13.31,2.1-21.62c-1.26-8.58-1.42-13.32-2.15-19.87-.64-5.77-1.41-10.16-1.41-10.16Z"/><path class="cls-21" d="M624.32,790.38l-29.73-.54c.44,19.85,3.59,52.9,4.11,71.52.09,3.51-.09,27.25,1.23,34.46,2,10.84,14.85,9.38,15.54,2.89s-.83-34.2-.79-37.06c-.11-11.94,5.48-43.12,8.42-64.56C623.24,796,624.19,791.41,624.32,790.38Z"/><path class="cls-7" d="M668,845.92s-1.54.08-1.78,1.34c-.29,1.49-.36,3.84-1,6.29-.87,3.4-1.58,9-1.06,11.77s6.84,6.9,11.17,7.63,10.43,5,13.82,8.19c4.16,3.91,13.12,7.61,19.23,7.56,7.22-.05,12.26-2.4,14.64-6.27,2.48-4-2.17-4.34-10.43-9.69l-6.41-4.16c-13.08-8.55-17.87-13.13-21.57-21.67Z"/><path class="cls-21" d="M684.78,841.27c-.22-6.15,2.93-51.43,2.93-51.43l-25.58,2.88c6,36.1,6.53,48.4,5.84,53.65h0a5.7,5.7,0,0,0-.16,1.51c0,7,7.94,10.79,14.12,15.47,2.44,1.85,8.7,7.54,16.05,10,4.75,1.62,13.54,2.23,14.67-.66C705.13,867,694.91,859.5,688.93,853,686.08,849.82,685,847.41,684.78,841.27Z"/><path class="cls-4" d="M601.48,585.1c-14,30.47.51,137.84.51,137.84-.42,4.94-6.08,14.67-8.19,36.44-2.48,25.72,4.6,94.58,4.6,94.58s6.79,5.08,16.65.35c0,0,18-101.17,21.23-126.74,2.82-22.32,8.22-71.39,8.22-71.39l15.36,71.27s-4,12.5-4.87,22c-1.45,15,13.19,90.54,13.19,90.54s6.86,3.62,16.59-.32c0,0,6.49-97.54,7.85-115.66,2.28-30.43-5.8-125.38-11.38-143.39Z"/><path class="cls-20" d="M601.48,585.1c-14,30.47.51,137.84.51,137.84-.42,4.94-6.08,14.67-8.19,36.44-2.48,25.72,4.6,94.58,4.6,94.58s6.79,5.08,16.65.35c0,0,18-101.17,21.23-126.74,2.82-22.32,8.22-71.39,8.22-71.39l15.36,71.27s-4,12.5-4.87,22c-1.45,15,13.19,90.54,13.19,90.54s6.86,3.62,16.59-.32c0,0,6.49-97.54,7.85-115.66,2.28-30.43-5.8-125.38-11.38-143.39Z"/><path class="cls-22" d="M644.5,656.18,649,627.87s19.17-4,27.86-12.14c0,0-9.12,11.34-22.67,15.06l-5.08,21.79,8.89,66Z"/><path class="cls-4" d="M608.64,490.42l19,4.95V455.24h0c-10.49-2.73-19,3.32-19,13.51Z"/><path class="cls-23" d="M608.64,490.42l19,4.95V455.24h0c-10.49-2.73-19,3.32-19,13.51Z"/><path class="cls-4" d="M646.19,461l-6.81-.16c-20.76-.47-37.22-18.39-36.76-40h0c-.12-23.56,18.24-42.76,40.86-42.89h0c22.63-.12,41.06,18.88,41.18,42.45l-.06,2.43C684.09,444.35,666.91,461.42,646.19,461Z"/><path class="cls-23" d="M646.19,461l-6.81-.16c-20.76-.47-37.22-18.39-36.76-40h0c-.12-23.56,18.24-42.76,40.86-42.89h0c22.63-.12,41.06,18.88,41.18,42.45l-.06,2.43C684.09,444.35,666.91,461.42,646.19,461Z"/><path class="cls-4" d="M614.4,387.76a5.13,5.13,0,0,0-6.57-3.69l1.82,7a5.29,5.29,0,0,0-1.37-1.2,5.06,5.06,0,0,0-7.13,2.28l9.25,5.45a6.09,6.09,0,0,0,.61-3A5.85,5.85,0,0,0,614.4,387.76Z"/><path class="cls-23" d="M614.4,387.76a5.13,5.13,0,0,0-6.57-3.69l1.82,7a5.29,5.29,0,0,0-1.37-1.2,5.06,5.06,0,0,0-7.13,2.28l9.25,5.45a6.09,6.09,0,0,0,.61-3A5.85,5.85,0,0,0,614.4,387.76Z"/><path class="cls-8" d="M625.61,471.53s-13.73,2-19,3.65c7.35,18-4.18,45.87-4.18,45.87l10.87,33.49c-7.5,15.39-13.7,23-16.25,35.53,6.92,13.52,55.79,26.42,87.59,1.79,0,0-1-34.22-5.08-54.16,10.42-20.32,8.72-26.28,6.59-33.37-4.94-16.48-14.95-22.82-26.87-34.43l-7.19-.76Z"/><path class="cls-7" d="M614.58,568c5.9-6.05,18.42-7.78,18.42-7.78l-11.48-6.55-12.88-31a71.13,71.13,0,0,0,7.74-34.17L609,486.64c.89,16.42-6.55,34.41-6.55,34.41l10.87,33.49c-7.5,15.39-13.7,23-16.25,35.53,4.74,9.26,29.13,18.21,54.25,15C617.66,602.87,608.9,573.8,614.58,568Z"/><path class="cls-24" d="M648.59,605.41l1.37-.14A10.06,10.06,0,0,0,648.59,605.41Z"/><path class="cls-21" d="M669.39,398.93c4.08,3.75,9.18,11.88,8.77,35.65-.35,20.14-6.59,25.15-9.73,26.6s-9.21.61-15.12-.38l-.07,8.34s7.79,8.64,7.3,14.19-11.08,7.84-18.74,2.47-14.17-14.34-14.17-14.34l-.08-25.35s-3.46,3.54-9.38-1.79c-4.88-4.4-6.55-11.86-2.79-15.89s10.78-3,13.49,2.73a76.94,76.94,0,0,0,25.89-7.62C665.77,417.78,670.18,407.38,669.39,398.93Z"/><path class="cls-7" d="M653.31,430a2.44,2.44,0,1,1-2.57-2.5A2.55,2.55,0,0,1,653.31,430Z"/><path class="cls-25" d="M654.21,446.84l6.33,2.07a3.25,3.25,0,0,1-4.1,2.38A3.66,3.66,0,0,1,654.21,446.84Z"/><path class="cls-7" d="M676.09,420.87l-5.74-2a2.8,2.8,0,0,1,3.66-2A3.35,3.35,0,0,1,676.09,420.87Z"/><path class="cls-4" d="M628.91,428.76l-.07,8.52a4,4,0,0,0,4.16-4.06A4.42,4.42,0,0,0,628.91,428.76Z"/><path class="cls-23" d="M628.91,428.76l-.07,8.52a4,4,0,0,0,4.16-4.06A4.42,4.42,0,0,0,628.91,428.76Z"/><path class="cls-7" d="M674.11,429.13a2.44,2.44,0,1,1-2.57-2.49A2.54,2.54,0,0,1,674.11,429.13Z"/><polygon class="cls-25" points="660.6 425.68 660.54 442.18 668.23 439.66 660.6 425.68"/><path class="cls-25" d="M653.31,460.8c-6.22-.81-19-4.57-21-9.83,0,0,.68,3.31,4.51,6.7s16.51,7.2,16.51,7.2Z"/><path class="cls-21" d="M577.46,555.87s15.21,21.61,17.83,24.43,4.4,1.89,7.22.63a84.53,84.53,0,0,1,10.58-3.45c4.65-1.15,5.65,3.14,1,6.2-3.33,2.21-7.14,3.18-5.55,5s6.52,5,11.1,6.81c11.23,4.42,10.36,6.65,8.3,10.28-1.8,3.17-7.05,10-27.13,1.93-8.29-3.32-20-12.78-25.47-18.88-7.94-8.8-20.32-24.56-20.32-24.56Z"/><path class="cls-3" d="M609.56,474.41c-5.51.37-15.87,1.69-28.86,23.26-11.39,18.92-29.05,44.6-32.33,53.78-1.33,3.7,3.85,11.41,10.5,19.31,9.09-.4,17.36-6.68,21.66-11.71a42.72,42.72,0,0,0-4.2-7.62L603,521s10.12-9.27,12.24-21.41C617.5,486.63,616.79,476.33,609.56,474.41Z"/><polygon class="cls-4" points="758.75 515.32 693.04 532.63 674.96 606.96 737.42 588.82 758.75 515.32"/><polygon class="cls-26" points="758.75 515.32 693.04 532.63 674.96 606.96 737.42 588.82 758.75 515.32"/><g class="cls-27"><path d="M729.06,568a13,13,0,0,0,12.28,7.35l.48-1.65Z"/></g><g class="cls-27"><path d="M739,527.13s.25-1.12.55-2.51-3.56-1.44-8.62-.13L721.2,527c-5.05,1.31-9.39,3.5-9.69,4.88l-.54,2.51Z"/></g><path class="cls-8" d="M744,517.71c.19-.86-1.37-1.09-3.49-.51l-3.83,1.06s1.14-5.42-7.37-3.52-10.36,8-10.36,8L714.86,524c-2.26.64-4.31,1.86-4.58,2.72l-.48,1.56,33.84-8.91S743.81,518.58,744,517.71Z"/><path class="cls-8" d="M739.34,520.38c-3.1.75-4.39,1.16-4.85,3.3-.53,2.43-.75,4.22-.75,4.22l-15,4s.73-3.08,1-4.29-.28-1.92-2.67-1.29l-.2-1,23.47-6Z"/><path class="cls-8" d="M739.85,527.37s.25-1.13.55-2.51-3.56-1.44-8.62-.13l-9.68,2.51c-5.05,1.31-9.39,3.49-9.69,4.88l-.54,2.5Z"/><path class="cls-21" d="M751.82,539.19s-2.46,8.4-3,10.41-7.92,5.6-12.75,6.93-10.11,2.9-7.83,9.65c2.11,6.23,10.06,7.65,14.1,7.47s9.59-4,11.77-10.28c2.79-8,1.29-16.44,2.39-21.09S754.24,536.42,751.82,539.19Z"/><path class="cls-28" d="M503,541.16c-9-9.08-12.23-5.55-13.37,4.41a45.06,45.06,0,0,1-3,12.17c-.64-3.08-.91-4.48-1.7-6-1.56-3-4.21-3.1-5.34-2.63-.88.37.2,2.48.07,6.33-.18,4.94-1.78,7.67-.62,12.92a8.39,8.39,0,0,1-.89,5.78c-4.86,9-20.37,25.65-31.3,37.63-9.66-8.73-31.28-28.25-41.63-37.58-14.19-12.79-18.82-18.56-32.55-17.62a36.91,36.91,0,0,1,11.68,7c6.36,5.38,4.85,36.18,4.85,36.18s47.23,33.87,52.08,37.09a23.34,23.34,0,0,0,2.17,1.29,11.6,11.6,0,0,0,14.15-2.72c10.08-11.52,24.77-34.2,33.27-46,4-5.53,7.84-13.08,10.27-17.88C509.54,554.88,508.62,546.85,503,541.16Z"/><path class="cls-4" d="M374,555.72a23.61,23.61,0,0,1,19,4.66c8.11,6.15,42.59,37.85,42.59,37.85s.94,16.8-16.59,26.83l-42.38-29.9Z"/><path class="cls-17" d="M374,555.72a23.61,23.61,0,0,1,19,4.66c8.11,6.15,42.59,37.85,42.59,37.85s.94,16.8-16.59,26.83l-42.38-29.9Z"/><rect class="cls-28" x="315.21" y="935.01" width="17.95" height="32"/><polygon class="cls-28" points="377.45 933.3 395.39 933.94 396.29 900.07 377.45 899.43 377.45 933.3"/><path class="cls-8" d="M312.68,657.91c0,17.85,2.63,161.53,2.63,161.53-.42,5.13-5,14.6-4,34.34,1.36,26.8,3.17,97.23,3.17,97.23s8.72,5.3,20,.41c0,0,17-97.55,20.19-124.11,2.81-23.18,7.57-101.23,7.57-101.23l9.73,90.75a110.35,110.35,0,0,0-2.22,29.71c.84,12.29,6.61,76.27,6.61,76.27s8.45,6,20.73,1.65c0,0,10.21-96.36,10.41-107.63.24-12.85-6-159.11-6-159.11Z"/><path class="cls-7" d="M333.16,957.78v-2.67c1.72.78,5.71,16.64,12.83,23.4,5.66,5.38,13.39,11.6,15.35,17.59,2,6.24-10.75,9.68-16,8.71-6.15-1.14-16.8-5.65-19.48-9.82s-3.92-10.35-6.1-13.41-7.18-6.48-8.35-10c-.65-1.95.12-6.22,1-9.82.84-3.3,1.74-6.94,2.82-6.63v2c1.3,1.5,4.91,3,9,3.16C326.81,960.41,333.18,959.87,333.16,957.78Z"/><path class="cls-7" d="M395.58,928.18c.93,0,1.69,1.4,3.74,3.72a39.42,39.42,0,0,0,10.56,7.91c6.72,3.51,19.79,8.9,25.71,11.67,3.69,1.74,3.52,6.38-.3,9s-13,4.55-24.11,2c-6-1.4-13.89-7.21-18.86-6.89s-14.26.24-17.93-2.4-2.2-8.26-1.17-13.09c1.13-5.27,2.55-13.5,4.23-13.14v1.82c2.15,3.4,13.29,4.79,18,2.28Z"/><path class="cls-7" d="M362.19,726.08s14.35-4.21,25-14.93c0,0-4.82,9.41-19.17,18.16l3.07,81Z"/><path class="cls-4" d="M322,560.53s-14,1.28-13,28l3.11,42.63-.29,64c13.2,15,71.71,13.86,91.75-1.2,0,0-2.07-75.7-3.42-104.83-1-20.71-5.73-31.14-26.08-33.42l-25,1.1Z"/><polygon class="cls-17" points="361.91 574.56 365.13 597.04 372.64 596.9 364.17 598.23 361.91 574.56"/><path class="cls-28" d="M277.47,652.42c7.28-58.55,24-87.65,44.45-91.08l-1.44,37.46s-13.72,31.28-19.44,62c-2.68,14.41-5.8,39.47-5,51.79a9.13,9.13,0,0,0,2.61,5.74c4,4.11,5.25,7.66,7.95,12.29,2.12,3.63,4.3,4.92,3.74,5.79-.72,1.12-3.11,2.65-6.25.81a33.16,33.16,0,0,1-5.83-5.25s-.6,9,2.93,16.3c4.78,9.84,4,15-9.25,12.14-8.29-1.82-14.27-10.56-16.49-31a178.17,178.17,0,0,1-.41-22.89C275.86,687,276,664.13,277.47,652.42Z"/><path class="cls-4" d="M323.09,560.38c-10.61,0-20.28,1.82-28,16.64-7.38,14.21-13.05,44.31-15.92,54.14,0,0,15.49,9.15,29.72,8.93l10-34.82S325.73,589,323.09,560.38Z"/><path class="cls-17" d="M323.09,560.38c-10.61,0-20.28,1.82-28,16.64-7.38,14.21-13.05,44.31-15.92,54.14,0,0,15.49,9.15,29.72,8.93l10-34.82S325.73,589,323.09,560.38Z"/><path class="cls-7" d="M345,500.1c0,15.37,12,27.84,26.72,27.84s26.72-12.47,26.72-27.84-12-27.83-26.72-27.83S345,484.73,345,500.1Z"/><path class="cls-7" d="M328,514s4.1,20.05,5.74,23.35a8.76,8.76,0,0,0,5,4.23l-.29-14.11Z"/><path class="cls-7" d="M333.1,485.29s-2.94-.73-6.06,4.15c-2.67,4.18-3.28,13.57.92,24.59l7.72.92Z"/><path class="cls-28" d="M338,515c-1.54,1-3.75-2.14-5.66-4.22s-8.14-4.92-11.25,1.9,2.74,16.14,7.65,17.75c8.46,2.76,9.72-2.89,9.72-2.89l.65,31.77c11.23,17.36,36.65,16.74,27.51-.84l0-9.67s7.66,1.21,11.4.61c6.22-1,10.13-6.11,12-13.12,3-11.26,4.18-20.35,1.6-42.5-2.81-24.28-29.92-24.53-44.56-14.93S338,515,338,515Z"/><path class="cls-18" d="M339,552.15s3.94,8.54,11,13.78a31.16,31.16,0,0,0,13.3,5.65s-6.58,4.36-9.38,10.54-22.56-10.83-22.38-22.89c0,0,3.1-12.12,7.35-12.9Z"/><path class="cls-18" d="M363.25,571.58s6.09-3,3.36-13.15l0-9.67,2.67.36a23.35,23.35,0,0,1,6.41,11.12c.62,2.77,2.12,16.79-.56,19.58C372.68,582.36,368.71,572.33,363.25,571.58Z"/><path class="cls-7" d="M338,517.67c-.77,0-3.73-5.1-5.66-6.93-2.67-2.53.77-25.45.77-25.45s-2.56-5.69,2.58-11.59c3.66-4.19,9.77-4.66,20.21-6.36a111.64,111.64,0,0,0,12.37-2.24c4.25-1.2,8.42-4,12.38-6,1.3-.66,2.77-1.34,4.18-1a4.07,4.07,0,0,1,2.66,3,11.84,11.84,0,0,1,.08,4.2c2.42-2.67,7.15-2.28,9.62.34s2.81,6.78,1.5,10.13a17.94,17.94,0,0,1-7,8c-13.12,8.86-28.6,6.4-43.28,4.66a3.92,3.92,0,0,0-2.1.14c-2.29,1-2.79,8.18-3.19,10.25C341.74,505.83,340.61,517.62,338,517.67Z"/><path class="cls-7" d="M333.12,486.5l-9.36-5.23a5.06,5.06,0,0,1,7.08-2.44A5.93,5.93,0,0,1,333.12,486.5Z"/><path class="cls-29" d="M366.59,548.76s-13.88-2.91-18.74-5.6c-3.24-1.8-5.92-4.91-6.71-6.91A23.14,23.14,0,0,0,345,544.4c3.55,4.73,21.63,8.21,21.63,8.21Z"/><path class="cls-7" d="M361.57,510.52a2.79,2.79,0,1,1-2.79-3A2.9,2.9,0,0,1,361.57,510.52Z"/><path class="cls-7" d="M356.79,498.47l-6,3.43a3.8,3.8,0,0,1,1.39-4.94A3.25,3.25,0,0,1,356.79,498.47Z"/><path class="cls-29" d="M365.33,531.36l6.35,2.48a3.3,3.3,0,0,1-4.31,2.19A3.74,3.74,0,0,1,365.33,531.36Z"/><path class="cls-7" d="M389.36,501.79l-6.26-3a3.21,3.21,0,0,1,4.44-1.78A3.86,3.86,0,0,1,389.36,501.79Z"/><path class="cls-7" d="M385.23,510.52a2.79,2.79,0,1,1-2.78-3A2.89,2.89,0,0,1,385.23,510.52Z"/><polygon class="cls-29" points="369.47 508.36 369.79 525.93 379.77 523.65 369.47 508.36"/><path class="cls-7" d="M357.26,503.25a7,7,0,0,0,0,13.9h1.27a7,7,0,0,0,0-13.9Zm-8.2,6.95a8.29,8.29,0,0,1,8.2-8.36h1.27a8.36,8.36,0,0,1,0,16.72h-1.27A8.29,8.29,0,0,1,349.06,510.2Z"/><path class="cls-7" d="M382.27,503.25a7,7,0,0,0,0,13.9h1.27a7,7,0,0,0,0-13.9Zm-8.2,6.95a8.29,8.29,0,0,1,8.2-8.36h1.27a8.36,8.36,0,0,1,0,16.72h-1.27A8.29,8.29,0,0,1,374.07,510.2Z"/><path class="cls-7" d="M366.63,508.55A5.39,5.39,0,0,1,371,506.3a4.36,4.36,0,0,1,3.78,1.46l1.1-.86a5.6,5.6,0,0,0-4.95-2,6.67,6.67,0,0,0-5.44,2.92Z"/><rect class="cls-7" x="335.68" y="508.49" width="14.14" height="1.41"/></svg>