<svg id="Capa_1" data-name="Capa 1" xmlns="http://www.w3.org/2000/svg" viewBox="0 0 1120 1080.93"><defs><style>.cls-1{fill:#868686;}.cls-2{fill:#fab234;}.cls-3{fill:#f79826;}.cls-4{fill:#ffc36c;}.cls-5{fill:#fc8;}.cls-6{fill:#fff;}</style></defs><ellipse class="cls-1" cx="635.11" cy="924.72" rx="431.27" ry="141.87"/><path class="cls-2" d="M688.68,770.23c-50.76-30.67-122.93-50-203.28-50s-152.52,19.29-203.27,50l-74.77,22.6v83.93c0,24.26,10.09,47.14,27.61,67.63V789h24V967.33a242.94,242.94,0,0,0,41.72,26.15V836.94h24v167.34a373.65,373.65,0,0,0,47.05,15.18V852.92h24v171.83a462.34,462.34,0,0,0,53.7,7V860h24V1032.9c4,.1,8,.34,12.08.34,14.62,0,28.86-.82,42.87-2V849.37h24V1028.5a431.75,431.75,0,0,0,53.7-10.89V856.47h24v153.79A316.25,316.25,0,0,0,678.81,989V809.93h24V974.17c14.67-10.36,27-21.77,36.69-34V770.23Z"/><path class="cls-3" d="M235,789V944.39a170.53,170.53,0,0,0,24,22.94V789Z"/><path class="cls-3" d="M739.47,940.14c15.3-19.39,24-40.8,24-63.38v-82.7l-24-23.83Z"/><path class="cls-3" d="M300.66,836.94V993.48c7.64,3.83,15.6,7.45,24,10.8V836.94Z"/><path class="cls-3" d="M678.81,809.93V989a245,245,0,0,0,24-14.87V809.93Z"/><path class="cls-3" d="M371.67,852.92v166.54q11.71,3,24,5.29V852.92Z"/><path class="cls-3" d="M449.34,860v171.76c7.9.58,15.89.93,24,1.12V860Z"/><path class="cls-3" d="M528.27,849.37v181.82q12.16-1.05,24-2.69V849.37Z"/><path class="cls-3" d="M605.94,856.47v161.14q12.34-3.36,24-7.35V856.47Z"/><path class="cls-4" d="M763.44,794.06c0,86.42-124.48,156.49-278,156.49s-278-70.07-278-156.49,124.49-156.49,278-156.49S763.44,707.64,763.44,794.06Z"/><path class="cls-2" d="M727.58,787.93C727.58,856,620,911.18,487.27,911.18S247,856,247,787.93,354.55,664.68,487.27,664.68,727.58,719.87,727.58,787.93Z"/><ellipse class="cls-4" cx="486.74" cy="788.23" rx="212.84" ry="107.33"/><path class="cls-5" d="M681.86,785.34c0,53.61-86.18,97.07-192.48,97.07S296.89,839,296.89,785.34s86.18-97.07,192.49-97.07S681.86,731.73,681.86,785.34Z"/><path class="cls-3" d="M485.08,917.58c-134.24,0-243.45-57.68-243.45-128.58S350.84,660.41,485.08,660.41,728.52,718.09,728.52,789,619.32,917.58,485.08,917.58Zm0-246.52c-128.37,0-232.8,52.91-232.8,117.94s104.43,117.93,232.8,117.93S717.87,854,717.87,789,613.44,671.06,485.08,671.06Z"/><path class="cls-6" d="M576.48,855.3c-16.7,8-33.57,12.58-53.69,14.52L476.6,840.59l22-14,18,11.38c5.56,3.52,8.48,4.52,14.47,3.52a52.74,52.74,0,0,0,15.39-5.2l-58-36.68c-30.17,6.86-62.46,9.81-98.42-13-31-19.62-35-41.57-13.8-58.06l-28.51-18L366,701l27.9,17.66c14.08-6.31,30.47-10.6,49.54-12.36l43.71,27.66-22,13.71L448.39,737c-5.59-3.53-8.49-4.52-14.49-3.53a70,70,0,0,0-11.18,3.36l54.55,34.52.24-.12c29.81-6,64.31-10.06,101.82,13.68,33.47,21.18,35.36,43.51,14.5,60.19l31.93,20.21-18.29,9.58ZM450.94,775.86,406.3,747.62c-4.37,6.24-2.12,13.31,10.27,21.15C427.73,775.84,438.5,777,450.94,775.86Zm63.22,18.85,48.36,30.6c4.88-6.5,2.73-14.34-11.85-23.56C538.9,794.3,526.78,793.11,514.16,794.71Z"/><path class="cls-2" d="M774.51,635.78c-50.76-30.67-122.93-50-203.28-50s-152.52,19.3-203.27,50l-74.77,22.6V742.3c0,24.26,10.1,47.14,27.61,67.64V654.56h24V832.87A242.33,242.33,0,0,0,386.49,859V702.49h24V869.82A373.81,373.81,0,0,0,457.51,885V718.47h24V890.3a466.7,466.7,0,0,0,53.7,7V725.57h24V898.44c4,.1,8,.34,12.09.34,14.62,0,28.86-.82,42.87-2V714.92h24V894.05a431.37,431.37,0,0,0,53.7-10.9V722h24V875.8a317.2,317.2,0,0,0,48.9-21.21V675.47h24V839.71c14.67-10.35,27-21.77,36.69-34V635.78Z"/><path class="cls-3" d="M320.8,654.56V809.94a169.4,169.4,0,0,0,24,22.93V654.56Z"/><path class="cls-3" d="M825.3,805.68c15.3-19.38,24-40.8,24-63.38V659.61l-24-23.83Z"/><path class="cls-3" d="M386.49,702.49V859c7.64,3.83,15.6,7.46,24,10.8V702.49Z"/><path class="cls-3" d="M764.64,675.47V854.59a245,245,0,0,0,24-14.88V675.47Z"/><path class="cls-3" d="M457.51,718.47V885q11.7,3,24,5.3V718.47Z"/><path class="cls-3" d="M535.17,725.57V897.33c7.9.57,15.89.92,24,1.11V725.57Z"/><path class="cls-3" d="M614.1,714.92V896.74q12.18-1.07,24-2.69V714.92Z"/><path class="cls-3" d="M691.77,722V883.15q12.35-3.35,24-7.35V722Z"/><path class="cls-4" d="M849.27,659.61c0,86.42-124.48,156.49-278,156.49s-278-70.07-278-156.49,124.48-156.49,278-156.49S849.27,573.18,849.27,659.61Z"/><path class="cls-2" d="M813.41,653.48c0,68.07-107.59,123.25-240.31,123.25S332.78,721.55,332.78,653.48,440.37,530.23,573.1,530.23,813.41,585.41,813.41,653.48Z"/><path class="cls-4" d="M785.4,653.77c0,59.28-95.29,107.33-212.83,107.33S359.73,713.05,359.73,653.77,455,546.44,572.57,546.44,785.4,594.5,785.4,653.77Z"/><path class="cls-5" d="M767.69,650.89c0,53.6-86.18,97.06-192.49,97.06s-192.48-43.46-192.48-97.06,86.18-97.08,192.48-97.08S767.69,597.28,767.69,650.89Z"/><path class="cls-3" d="M570.91,783.13c-134.23,0-243.46-57.68-243.46-128.59S436.68,526,570.91,526s243.44,57.69,243.44,128.59S705.14,783.13,570.91,783.13Zm0-246.52c-128.37,0-232.8,52.9-232.8,117.93s104.43,117.93,232.8,117.93S803.7,719.57,803.7,654.54,699.26,536.61,570.91,536.61Z"/><path class="cls-6" d="M662.31,720.84c-16.7,8-33.57,12.58-53.69,14.52l-46.19-29.23,22-14,18,11.39c5.56,3.52,8.48,4.51,14.47,3.51a52.41,52.41,0,0,0,15.39-5.19l-58-36.68c-30.17,6.85-62.46,9.8-98.42-12.95-31-19.62-35-41.58-13.8-58.06l-28.51-18,18.28-9.59,27.9,17.66c14.08-6.32,30.47-10.61,49.54-12.36L573,599.46l-22,13.7-16.74-10.59c-5.58-3.53-8.49-4.52-14.49-3.53a71,71,0,0,0-11.18,3.35l54.55,34.52.24-.12c29.81-5.95,64.31-10,101.81,13.68,33.48,21.18,35.37,43.52,14.51,60.2l31.93,20.2-18.29,9.59ZM536.77,641.4l-44.64-28.24c-4.38,6.24-2.13,13.31,10.27,21.16C513.56,641.38,524.33,642.55,536.77,641.4ZM600,660.25l48.36,30.61c4.88-6.51,2.73-14.35-11.85-23.57C624.73,659.84,612.61,658.65,600,660.25Z"/><path class="cls-2" d="M668.53,483c-50.76-30.67-122.92-50-203.27-50S312.74,452.3,262,483l-74.76,22.6V589.5c0,24.26,10.09,47.14,27.6,67.64V501.75h24V680.07a243.94,243.94,0,0,0,41.72,26.15V549.68h24V717a373.65,373.65,0,0,0,47,15.18V565.66h24V737.49a466.7,466.7,0,0,0,53.7,7V572.77h24V745.64c4,.1,8,.34,12.09.34,14.61,0,28.86-.82,42.87-2.05V562.11h24V741.24a433.37,433.37,0,0,0,53.71-10.89V569.21h24V723a318.06,318.06,0,0,0,48.9-21.22V522.67h24V686.91c14.67-10.36,27-21.77,36.7-34V483Z"/><path class="cls-3" d="M214.82,501.75V657.14a171,171,0,0,0,24,22.93V501.75Z"/><path class="cls-3" d="M719.33,652.88c15.3-19.39,24-40.8,24-63.38V506.8l-24-23.83Z"/><path class="cls-3" d="M280.51,549.68V706.22c7.64,3.83,15.61,7.45,24,10.8V549.68Z"/><path class="cls-3" d="M658.67,522.67V701.78a243.61,243.61,0,0,0,24-14.87V522.67Z"/><path class="cls-3" d="M351.53,565.66V732.2q11.7,3,24,5.29V565.66Z"/><path class="cls-3" d="M429.2,572.77V744.52c7.89.58,15.89.92,24,1.12V572.77Z"/><path class="cls-3" d="M508.13,562.11V743.93q12.17-1,24-2.69V562.11Z"/><path class="cls-3" d="M585.8,569.21V730.35q12.35-3.36,24-7.35V569.21Z"/><path class="cls-4" d="M743.3,506.8c0,86.43-124.48,156.49-278,156.49s-278-70.06-278-156.49,124.48-156.49,278-156.49S743.3,420.38,743.3,506.8Z"/><path class="cls-2" d="M707.44,500.68c0,68.06-107.6,123.24-240.32,123.24S226.81,568.74,226.81,500.68,334.4,377.42,467.12,377.42,707.44,432.61,707.44,500.68Z"/><path class="cls-4" d="M679.43,501c0,59.27-95.29,107.33-212.84,107.33S253.75,560.24,253.75,501,349,393.64,466.59,393.64,679.43,441.69,679.43,501Z"/><path class="cls-5" d="M661.72,498.08c0,53.61-86.18,97.07-192.49,97.07s-192.49-43.46-192.49-97.07S362.92,401,469.23,401,661.72,444.47,661.72,498.08Z"/><path class="cls-3" d="M464.93,630.32c-134.23,0-243.45-57.68-243.45-128.58S330.7,373.15,464.93,373.15s243.45,57.68,243.45,128.59S599.17,630.32,464.93,630.32Zm0-246.52c-128.36,0-232.8,52.91-232.8,117.94s104.44,117.93,232.8,117.93,232.79-52.91,232.79-117.93S593.29,383.8,464.93,383.8Z"/><path class="cls-6" d="M556.33,568c-16.7,8-33.56,12.58-53.68,14.51l-46.19-29.22,22-14,18,11.38c5.57,3.52,8.49,4.52,14.48,3.52a52.54,52.54,0,0,0,15.39-5.2l-58-36.67c-30.17,6.85-62.46,9.8-98.42-13-31-19.62-35-41.57-13.79-58.05l-28.52-18.05,18.28-9.59,27.91,17.66c14.07-6.31,30.46-10.6,49.53-12.36L467,446.65l-22,13.71-16.74-10.6c-5.58-3.53-8.48-4.52-14.49-3.53a70.9,70.9,0,0,0-11.17,3.36l54.55,34.52.24-.12c29.81-5.95,64.3-10.06,101.81,13.68,33.47,21.18,35.37,43.51,14.51,60.19l31.92,20.2-18.28,9.59ZM430.8,488.6l-44.64-28.25c-4.38,6.25-2.13,13.32,10.26,21.16C407.58,488.58,418.35,489.74,430.8,488.6ZM494,507.45l48.37,30.6c4.87-6.5,2.72-14.34-11.85-23.57C518.76,507,506.64,505.85,494,507.45Z"/><path class="cls-2" d="M727.36,327.46c-50.76-30.67-122.92-50-203.27-50s-152.52,19.29-203.28,50l-74.76,22.61V434c0,24.26,10.09,47.14,27.6,67.64V346.24h24V524.56a243.33,243.33,0,0,0,41.72,26.15V394.18h24V561.51a373.65,373.65,0,0,0,47.05,15.18V410.16h24V582a462.05,462.05,0,0,0,53.7,7V417.26h24V590.13c4,.1,8,.34,12.09.34,14.61,0,28.86-.82,42.87-2V406.6h24V585.73a429.73,429.73,0,0,0,53.71-10.89V413.7h24V567.49a317.5,317.5,0,0,0,48.89-21.21V367.16h24V531.4c14.67-10.36,27-21.77,36.7-34V327.46Z"/><path class="cls-3" d="M273.65,346.24V501.63a170.48,170.48,0,0,0,24,22.93V346.24Z"/><path class="cls-3" d="M778.16,497.37c15.3-19.39,24-40.8,24-63.38v-82.7l-24-23.83Z"/><path class="cls-3" d="M339.34,394.18V550.71c7.64,3.83,15.61,7.45,24,10.8V394.18Z"/><path class="cls-3" d="M717.49,367.16V546.28a247,247,0,0,0,24-14.88V367.16Z"/><path class="cls-3" d="M410.36,410.16V576.69q11.7,3,24,5.29V410.16Z"/><path class="cls-3" d="M488,417.26V589c7.89.58,15.89.93,24,1.12V417.26Z"/><path class="cls-3" d="M567,406.6V588.43q12.16-1.06,24-2.7V406.6Z"/><path class="cls-3" d="M644.63,413.7V574.84q12.35-3.35,24-7.35V413.7Z"/><path class="cls-4" d="M802.13,351.29c0,86.43-124.49,156.49-278,156.49s-278-70.06-278-156.49,124.48-156.48,278-156.48S802.13,264.87,802.13,351.29Z"/><path class="cls-2" d="M766.27,345.17c0,68.06-107.6,123.24-240.32,123.24S285.64,413.23,285.64,345.17,393.23,221.91,526,221.91,766.27,277.1,766.27,345.17Z"/><path class="cls-4" d="M738.25,345.46c0,59.27-95.28,107.33-212.83,107.33S312.58,404.73,312.58,345.46s95.29-107.33,212.84-107.33S738.25,286.18,738.25,345.46Z"/><path class="cls-5" d="M720.54,342.57c0,53.61-86.17,97.07-192.48,97.07s-192.49-43.46-192.49-97.07,86.18-97.07,192.49-97.07S720.54,289,720.54,342.57Z"/><path class="cls-3" d="M523.76,474.82c-134.23,0-243.45-57.69-243.45-128.59S389.53,217.64,523.76,217.64s243.45,57.69,243.45,128.59S658,474.82,523.76,474.82Zm0-246.53C395.4,228.29,291,281.2,291,346.23S395.4,464.16,523.76,464.16s232.79-52.9,232.79-117.93S652.12,228.29,523.76,228.29Z"/><path class="cls-6" d="M615.16,412.53c-16.7,8-33.57,12.58-53.69,14.52l-46.18-29.23,22-14,18,11.38c5.57,3.52,8.49,4.52,14.47,3.52a52.6,52.6,0,0,0,15.4-5.2l-58-36.67c-30.17,6.85-62.46,9.8-98.42-13-31-19.62-35-41.57-13.8-58.05L386.4,267.77l18.28-9.58,27.91,17.65c14.07-6.31,30.46-10.6,49.53-12.35l43.71,27.66-22,13.7-16.74-10.6c-5.58-3.53-8.48-4.52-14.49-3.52a69.51,69.51,0,0,0-11.17,3.35L516,328.6l.23-.12c29.82-6,64.31-10.05,101.82,13.68,33.47,21.18,35.37,43.52,14.5,60.19l31.93,20.2-18.28,9.59ZM489.62,333.09,445,304.85c-4.38,6.24-2.13,13.31,10.26,21.15C466.41,333.07,477.18,334.23,489.62,333.09Zm63.22,18.85,48.37,30.6c4.87-6.5,2.72-14.34-11.86-23.56C577.59,351.53,565.47,350.34,552.84,351.94Z"/><path class="cls-2" d="M727.36,147C676.6,116.33,604.44,97,524.09,97s-152.52,19.3-203.28,50l-74.76,22.6v83.92c0,24.27,10.09,47.15,27.6,67.64V165.78h24V344.1a243.94,243.94,0,0,0,41.72,26.15V213.71h24V381.05a375.28,375.28,0,0,0,47.05,15.18V229.69h24V401.52a466.41,466.41,0,0,0,53.7,7V236.79h24V409.66c4,.1,8,.35,12.09.35C538.7,410,553,409.18,567,408V226.14h24V405.27a433.37,433.37,0,0,0,53.71-10.89V233.24h24V387a318.49,318.49,0,0,0,48.89-21.22V186.7h24V350.93c14.67-10.35,27-21.77,36.7-34V147Z"/><path class="cls-3" d="M273.65,165.78V321.16a171.1,171.1,0,0,0,24,22.94V165.78Z"/><path class="cls-3" d="M778.16,316.91c15.3-19.39,24-40.8,24-63.39V170.83l-24-23.83Z"/><path class="cls-3" d="M339.34,213.71V370.25c7.64,3.82,15.61,7.45,24,10.8V213.71Z"/><path class="cls-3" d="M717.49,186.7V365.81a245,245,0,0,0,24-14.88V186.7Z"/><path class="cls-3" d="M410.36,229.69V396.23q11.7,2.94,24,5.29V229.69Z"/><path class="cls-3" d="M488,236.79V408.55c7.89.57,15.89.92,24,1.11V236.79Z"/><path class="cls-3" d="M567,226.14V408q12.16-1.05,24-2.69V226.14Z"/><path class="cls-3" d="M644.63,233.24V394.38Q657,391,668.6,387V233.24Z"/><path class="cls-4" d="M802.13,170.83c0,86.42-124.49,156.49-278,156.49s-278-70.07-278-156.49,124.48-156.49,278-156.49S802.13,84.41,802.13,170.83Z"/><path class="cls-2" d="M766.27,164.7C766.27,232.77,658.67,288,526,288S285.64,232.77,285.64,164.7,393.23,41.45,526,41.45,766.27,96.63,766.27,164.7Z"/><path class="cls-4" d="M738.25,165c0,59.28-95.28,107.33-212.83,107.33S312.58,224.27,312.58,165,407.87,57.66,525.42,57.66,738.25,105.72,738.25,165Z"/><path class="cls-5" d="M720.54,162.11c0,53.6-86.17,97.06-192.48,97.06s-192.49-43.46-192.49-97.06S421.75,65,528.06,65,720.54,108.5,720.54,162.11Z"/><path class="cls-3" d="M523.76,294.35c-134.23,0-243.45-57.68-243.45-128.59S389.53,37.17,523.76,37.17,767.21,94.86,767.21,165.76,658,294.35,523.76,294.35Zm0-246.52C395.4,47.83,291,100.73,291,165.76S395.4,283.7,523.76,283.7s232.79-52.91,232.79-117.94S652.12,47.83,523.76,47.83Z"/><path class="cls-6" d="M615.16,232.06c-16.7,8-33.57,12.59-53.69,14.52l-46.18-29.22,22-14,18,11.38c5.57,3.52,8.49,4.51,14.47,3.52a52.89,52.89,0,0,0,15.4-5.2l-58-36.68c-30.17,6.85-62.46,9.8-98.42-13-31-19.62-35-41.57-13.8-58.06l-28.51-18,18.28-9.59,27.91,17.66c14.07-6.31,30.46-10.6,49.53-12.36l43.71,27.66-22,13.7-16.74-10.59c-5.58-3.53-8.48-4.52-14.49-3.53a70.55,70.55,0,0,0-11.17,3.35L516,148.13l.23-.12C546,142.06,580.5,138,618,161.69c33.47,21.18,35.37,43.52,14.5,60.2l31.93,20.2-18.28,9.59ZM489.62,152.63,445,124.38c-4.38,6.24-2.13,13.32,10.26,21.16C466.41,152.6,477.18,153.77,489.62,152.63Zm63.22,18.84,48.37,30.61c4.87-6.5,2.72-14.35-11.86-23.57C577.59,171.06,565.47,169.87,552.84,171.47Z"/></svg>