<svg id="Capa_1" data-name="Capa 1" xmlns="http://www.w3.org/2000/svg" viewBox="0 0 1030 1080"><defs><style>.cls-1{fill:#383838;}</style></defs><path class="cls-1" d="M202.21,806.51H580.8a153,153,0,0,0,107,43.58c84.67,0,153.55-68.88,153.55-153.55a153.59,153.59,0,0,0-75.24-132v-321a13.58,13.58,0,0,0-13.58-13.58h-415l-.44,0-.85,0-.61.09-.7.1-.65.16-.64.16c-.21.06-.42.14-.63.21l-.63.23-.58.27c-.21.1-.42.19-.62.3l-.55.31c-.2.12-.4.24-.59.37s-.37.26-.56.39L329,233c-.21.17-.41.36-.62.55s-.23.19-.34.3l-135.34,133,0,0a8.42,8.42,0,0,0-.64.7,3.85,3.85,0,0,0-.27.3,11.44,11.44,0,0,0-.74,1c-.17.25-.33.51-.48.77l-.26.43c-.12.22-.22.46-.33.68s-.17.35-.25.53l-.23.63c-.07.21-.16.41-.22.62s-.11.43-.17.65-.11.42-.16.64c-.09.43-.15.86-.2,1.31,0,.1,0,.2,0,.3,0,.35-.05.7-.05,1.05V792.93A13.58,13.58,0,0,0,202.21,806.51Zm13.58-27.16V390.07H344.6V599.72l35.82-24.86,27.48,24.86,27-25.9,42,25.9V390.07H603.63V568.21a153.25,153.25,0,0,0-45,211.14ZM623.2,805.11h0a126.4,126.4,0,0,1,7.6-221.32,126.39,126.39,0,1,1-7.6,221.32ZM687.82,543a152.72,152.72,0,0,0-57,11V382.07L739,272.54V551.78A152.67,152.67,0,0,0,687.82,543ZM611.54,362.91H493L596.73,257.07H716.07ZM343.11,257.07H463.42L356,362.91H235.41Z"/><path class="cls-1" d="M746.3,685.11a13.77,13.77,0,0,0-3.1-.37H694.1l-29.27-34.61-26.71-31.56a13.58,13.58,0,1,0-20.73,17.54L630.8,652l46.63,55.12a13.75,13.75,0,0,0,10.37,4.81h55.4a13.57,13.57,0,0,0,3.1-26.79Z"/></svg>