<svg xmlns="http://www.w3.org/2000/svg" viewBox="0 0 1030 1080"><defs><style>.cls-1{isolation:isolate;}.cls-2{fill:#f5f5f5;}.cls-3{fill:#ffaaa8;}.cls-4{fill:#ffdd5a;}.cls-40,.cls-5{fill:#dcdddd;}.cls-39,.cls-5{mix-blend-mode:multiply;}.cls-6{fill:#e1e1e1;}.cls-10,.cls-7{opacity:0.2;}.cls-33,.cls-38,.cls-8{fill:none;}.cls-9{fill:#f0f0f0;}.cls-10,.cls-11,.cls-16,.cls-18,.cls-28,.cls-30{fill:#fff;}.cls-11{opacity:0.4;}.cls-12{fill:#375a64;}.cls-13{fill:#d268cc;}.cls-14{fill:#eac242;}.cls-15{opacity:0.3;}.cls-16,.cls-23{opacity:0.1;}.cls-17{fill:#1a2e35;}.cls-19{fill:#ce9328;}.cls-20{fill:#ff9090;}.cls-21{fill:#aaf04f;}.cls-22{fill:#96d335;}.cls-24{fill:#2b454e;}.cls-25{fill:#d6866e;}.cls-26{fill:#ffbea7;}.cls-27{fill:#f037e2;}.cls-28{opacity:0.15;}.cls-29{fill:#c06160;}.cls-30{opacity:0.6;}.cls-31{fill:#fafafa;}.cls-32,.cls-34{fill:#9da3b1;}.cls-32{stroke:#000;stroke-miterlimit:10;stroke-width:0.36px;}.cls-33{stroke:#231f20;stroke-width:0.3px;stroke-dasharray:0.45 0.45;}.cls-33,.cls-38{stroke-linecap:round;stroke-linejoin:round;}.cls-35{font-size:1.79px;fill:#585856;font-family:LeagueSpartan-Black, League Spartan;font-weight:800;letter-spacing:0.3em;}.cls-36{letter-spacing:0.23em;}.cls-37{letter-spacing:0.28em;}.cls-38{stroke:#454c5d;stroke-width:1.05px;stroke-dasharray:1.05 2.1;}</style></defs><g class="cls-1"><g id="Capa_1" data-name="Capa 1"><path class="cls-2" d="M866.17,482C671,369.24,355.48,369.24,161.53,482S-31.4,777.4,163.82,890.11s510.7,112.71,704.66,0S1061.4,594.66,866.17,482Z"/><path class="cls-3" d="M366.19,357.9h0a27.15,27.15,0,0,1,29.48,22.24l10,55.94,62.56,43.74-14,17-59.52-31.25a29.61,29.61,0,0,1-14.62-17.8l-19.18-64.69Z"/><path class="cls-4" d="M439,454.78c5.51-2.88-34.09-14-31.43-19.58L396.43,379a27.16,27.16,0,0,0-29.27-21.2l-1,.1-5.27,25.18,19.38,73.06C397,487,432.89,458,439,454.78Z"/><path class="cls-5" d="M372.13,431.69s11.6-5.33,14.67-44.76l-10.63-2Z"/><path class="cls-6" d="M469.4,692.46l-26.64-36.21a31.54,31.54,0,0,0-23-12.75l-39.26-3-62.4-37.92,23.32-13.46a2.11,2.11,0,0,0,0-3.65l-9.71-5.52a12.61,12.61,0,0,0-12.54,0L90.61,712.13a2.1,2.1,0,0,0,0,3.64l9.46,5.46a12.62,12.62,0,0,0,12.61,0l99.24-57.32,61.52,35.3,8,22.62a35.73,35.73,0,0,0,33.66,23.75h57.41l38.95,22.49,94.12-54.7Z"/><path class="cls-6" d="M819.62,659.07c-62.22-35.92-162.77-35.92-224.59,0-54.62,31.74-60.69,80.9-18.45,116.7-34.08-2.11-69.4,4.38-95.43,19.51-45.68,26.54-45.44,69.59.54,96.13s120.29,26.55,166,0c36.35-21.12,43.59-52.68,21.89-78.06,52.37,7.57,110-.48,150.81-24.19C882.17,753.24,881.85,695,819.62,659.07Z"/><polygon class="cls-7" points="176.32 302.64 257.52 256.28 269.07 262.88 176.36 315.81 176.32 302.64"/><polygon class="cls-8" points="858.69 362.06 924.4 399.99 924.25 450.21 858.55 412.28 858.69 362.06"/><polygon class="cls-9" points="858.69 362.06 858.55 412.28 852.46 415.81 852.62 358.55 858.69 362.06"/><polygon class="cls-2" points="924.25 450.21 924.23 457.25 852.46 415.81 858.55 412.28 924.25 450.21"/><path class="cls-6" d="M845.08,420,931.57,470l.21-74.15-86.49-49.93Zm7.38-4.21.16-57.26,6.07,3.51L924.4,400l-.15,50.22,0,7Z"/><polygon class="cls-2" points="845.29 345.87 851.38 342.33 937.86 392.26 931.78 395.8 845.29 345.87"/><polygon class="cls-9" points="937.86 392.26 937.65 466.41 931.57 469.95 931.78 395.8 937.86 392.26"/><polygon class="cls-6" points="879.57 381.13 861.65 395.23 861.61 409.02 921.21 443.43 921.25 429.64 909.89 407.08 899.69 415 903.3 426.21 898.06 416.26 879.57 381.13"/><path class="cls-6" d="M899.14,388.07c-2.8-1.62-5.08-.32-5.09,2.91a11.17,11.17,0,0,0,5.06,8.77c2.8,1.62,5.09.32,5.1-2.91A11.16,11.16,0,0,0,899.14,388.07Z"/><polygon class="cls-8" points="861.26 260.29 926.97 298.23 926.83 348.45 861.12 310.51 861.26 260.29"/><polygon class="cls-9" points="861.26 260.29 861.12 310.51 855.03 314.05 855.2 256.79 861.26 260.29"/><polygon class="cls-2" points="926.83 348.45 926.81 355.49 855.03 314.05 861.12 310.51 926.83 348.45"/><path class="cls-6" d="M847.66,318.26l86.48,49.93.21-74.15-86.48-49.93Zm7.38-4.21.16-57.26,6.06,3.5L927,298.23l-.14,50.22,0,7Z"/><polygon class="cls-2" points="847.87 244.11 853.95 240.57 940.44 290.5 934.35 294.04 847.87 244.11"/><polygon class="cls-9" points="940.44 290.5 940.23 364.65 934.14 368.19 934.35 294.04 940.44 290.5"/><polygon class="cls-6" points="882.14 279.36 864.22 293.47 864.18 307.25 923.78 341.67 923.82 327.88 912.46 305.32 902.26 313.24 905.87 324.44 900.64 314.5 882.14 279.36"/><path class="cls-6" d="M901.72,286.31c-2.81-1.62-5.09-.32-5.1,2.9a11.14,11.14,0,0,0,5.07,8.77c2.8,1.62,5.08.32,5.09-2.9A11.17,11.17,0,0,0,901.72,286.31Z"/><path class="cls-10" d="M715.48,295.79a.72.72,0,0,1-.18.17v0l-.13.09,0,0c-2.1,1.39-5.78,3.37-6.61,3.79l0-.05a.72.72,0,0,0,.46-.33l4.54-7.35-.9-.51h0l4,2.28Z"/><path class="cls-4" d="M604.6,137.12l128.72,74.44A14.5,14.5,0,0,1,740.5,224V353.4c0,9.6-10.87,17.76-21.6,11.63l-53.84-31.91L663.91,335c0,.08-.13.11-.19.17v0l-.14.09,0,0c-2.09,1.38-5.78,3.36-6.61,3.79l0-.06a.78.78,0,0,1-1-.48l-4.69-13.29h0l-61.1-34.5A14.28,14.28,0,0,1,583,278.35V148.75C583,138.43,598.18,133.44,604.6,137.12Z"/><path class="cls-8" d="M720.58,220.24h0Z"/><path class="cls-11" d="M724.42,225.05a14.61,14.61,0,0,0-3.83-4.8h0a13.34,13.34,0,0,0-1.74-1.19L590.13,144.62a4.76,4.76,0,0,0-7.14,4.13c0-10.32,15.19-15.31,21.61-11.63l128.72,74.44a14.31,14.31,0,0,1,5.32,5.41Z"/><path class="cls-10" d="M726,360.89V231.46a13.45,13.45,0,0,0-.11-1.69,14.89,14.89,0,0,0-1.5-4.72L738.64,217a14.19,14.19,0,0,1,1.86,7V353.4c0,9.6-10.87,17.76-21.6,11.63A4.77,4.77,0,0,0,726,360.89Z"/><path class="cls-12" d="M335.44,120.58l0,0c-1.52-5.31-12.31-15.42-23-15.2a9.19,9.19,0,0,0-3,.59L100.85,224.6a20.25,20.25,0,0,0-10.08,17.34V693.05c0,11.49,13.25,22.45,25.69,17.18,0,0,.05-.05.08-.06a4.94,4.94,0,0,0,.8-.32L325.9,591A20,20,0,0,0,336,573.67V122.75A4.86,4.86,0,0,0,335.44,120.58Z"/><path class="cls-13" d="M119.86,289.62a10,10,0,0,1,5-8.67L318.55,170.78a5,5,0,0,1,7.45,4.34V538.87a10,10,0,0,1-5,8.67L127.32,657.89a5,5,0,0,1-7.46-4.34Z"/><path class="cls-7" d="M119.86,289.62a10,10,0,0,1,5-8.67L318.55,170.78a5,5,0,0,1,7.45,4.34V538.87a10,10,0,0,1-5,8.67L127.32,657.89a5,5,0,0,1-7.46-4.34Z"/><path class="cls-14" d="M119.86,289.62a10,10,0,0,1,5-8.67L318.55,170.78a5,5,0,0,1,7.45,4.34V538.87a10,10,0,0,1-5,8.67L127.32,657.89a5,5,0,0,1-7.46-4.34Z"/><path class="cls-15" d="M90.77,241.94V693.05c0,11.49,13.25,22.45,25.69,17.18,0,0,.05-.05.08-.06a5,5,0,0,1-6.65-4.66V254.41a20,20,0,0,1,3.36-11l-20.41-10.2A19.77,19.77,0,0,0,90.77,241.94Z"/><path class="cls-16" d="M312.42,105.36a9.19,9.19,0,0,0-3,.59L100.85,224.6a19.92,19.92,0,0,0-8,8.59l20.41,10.2a19.87,19.87,0,0,1,6.72-6.32L328.52,118.42a5,5,0,0,1,6.92,2.16l0,0C333.94,115.25,323.15,105.14,312.42,105.36Z"/><path class="cls-17" d="M248.63,192.91c1.47-.85,2.68-.19,2.69,1.49a5.94,5.94,0,0,1-2.67,4.62l-40.92,23.62c-1.46.85-2.64.14-2.65-1.55a5.8,5.8,0,0,1,2.64-4.56Z"/><path class="cls-17" d="M197.21,222.6c1.46-.85,2.65-.17,2.65,1.51a5.86,5.86,0,0,1-2.63,4.6c-1.47.84-2.68.15-2.69-1.53A5.85,5.85,0,0,1,197.21,222.6Z"/><path class="cls-17" d="M223.4,189.47c2.93-1.69,5.29-.34,5.3,3a11.7,11.7,0,0,1-5.27,9.19c-2.92,1.69-5.35.31-5.36-3.06A11.69,11.69,0,0,1,223.4,189.47Z"/><path class="cls-17" d="M223.41,614.15c6-3.44,10.77-.7,10.79,6.15s-4.75,15.28-10.71,18.72-10.9.62-10.92-6.23S217.45,617.59,223.41,614.15Z"/><polygon class="cls-4" points="325.36 165.08 395.78 223.54 370.11 238.37 299.7 179.91 325.36 165.08"/><polygon class="cls-4" points="274.04 194.74 344.45 253.19 318.78 268.02 248.38 209.57 274.04 194.74"/><polygon class="cls-18" points="248.38 209.57 318.78 268.02 293.11 282.85 222.72 224.41 248.38 209.57"/><polygon class="cls-18" points="299.7 179.91 370.11 238.37 344.45 253.19 274.04 194.74 299.7 179.91"/><polygon class="cls-4" points="171.4 254.07 241.77 312.5 216.1 327.33 145.74 268.9 171.4 254.07"/><polygon class="cls-4" points="222.72 224.41 293.11 282.85 267.44 297.67 197.06 239.24 222.72 224.41"/><polygon class="cls-18" points="119.58 284.02 145.74 268.9 216.1 327.33 189.88 342.48 119.58 284.02"/><polygon class="cls-18" points="197.06 239.24 267.44 297.67 241.77 312.5 171.4 254.07 197.06 239.24"/><path class="cls-13" d="M395.78,223.54l-25.67,14.83h0A9.9,9.9,0,0,0,385,246.94h0a21.65,21.65,0,0,0,10.82-18.75Z"/><path class="cls-6" d="M370.11,238.37l-25.66,14.82h0a9.89,9.89,0,0,0,14.84,8.57h0A21.62,21.62,0,0,0,370.11,243Z"/><path class="cls-13" d="M344.45,253.19,318.78,268h0a9.9,9.9,0,0,0,14.85,8.57h0a21.66,21.66,0,0,0,10.82-18.75Z"/><path class="cls-6" d="M318.78,268l-25.67,14.83h0A9.9,9.9,0,0,0,308,291.42h0a21.67,21.67,0,0,0,10.82-18.75Z"/><path class="cls-13" d="M293.11,282.85l-25.67,14.82h0a9.9,9.9,0,0,0,14.85,8.57h0a21.62,21.62,0,0,0,10.82-18.74Z"/><path class="cls-6" d="M267.44,297.67,241.77,312.5h0a9.9,9.9,0,0,0,14.85,8.57h0a21.64,21.64,0,0,0,10.82-18.75Z"/><path class="cls-13" d="M241.77,312.5l-25.66,14.83h0A9.89,9.89,0,0,0,231,335.9h0a21.65,21.65,0,0,0,10.82-18.75Z"/><path class="cls-19" d="M395.78,223.54l-25.67,14.83h0A9.9,9.9,0,0,0,385,246.94h0a21.65,21.65,0,0,0,10.82-18.75Z"/><path class="cls-19" d="M344.45,253.19,318.78,268h0a9.9,9.9,0,0,0,14.85,8.57h0a21.66,21.66,0,0,0,10.82-18.75Z"/><path class="cls-19" d="M293.11,282.85l-25.67,14.82h0a9.9,9.9,0,0,0,14.85,8.57h0a21.62,21.62,0,0,0,10.82-18.74Z"/><path class="cls-19" d="M241.77,312.5l-25.66,14.83h0A9.89,9.89,0,0,0,231,335.9h0a21.65,21.65,0,0,0,10.82-18.75Z"/><path class="cls-6" d="M216.11,327.33l-26.23,15.15h0a9.9,9.9,0,0,0,14.85,8.57h0a22.79,22.79,0,0,0,11.38-19.72Z"/><path class="cls-19" d="M246,403a63.29,63.29,0,0,0-21.8,6.73,69.41,69.41,0,0,0-33.83,39,63.3,63.3,0,0,0-3.6,22.53,106.11,106.11,0,0,1,7.29-21,89.16,89.16,0,0,1,32.15-37A107.1,107.1,0,0,1,246,403Z"/><path class="cls-19" d="M225.94,515.56a39.9,39.9,0,0,1-12.27-2.14,34.6,34.6,0,0,1-20.26-17.77,40.11,40.11,0,0,1-3.72-11.88,28.08,28.08,0,0,0,1.65,12.77,30.13,30.13,0,0,0,21.72,19.05A28,28,0,0,0,225.94,515.56Z"/><path class="cls-19" d="M259.27,446.41a98,98,0,0,1-.26,17.27A86.71,86.71,0,0,1,246.7,500a97.55,97.55,0,0,1-10.3,13.88,54,54,0,0,0,12.85-12.13,62.6,62.6,0,0,0,12.85-37.93A53.93,53.93,0,0,0,259.27,446.41Z"/><path class="cls-19" d="M191.86,422.68a59.73,59.73,0,0,0-12.53,17.42A65.53,65.53,0,0,0,176,488.53a59.78,59.78,0,0,0,10,19,101.65,101.65,0,0,1-6.37-19.95,84.69,84.69,0,0,1,3.21-46A101.61,101.61,0,0,1,191.86,422.68Z"/><path class="cls-19" d="M274,425.21a33.23,33.23,0,0,0-6.1-16.28A35.42,35.42,0,0,0,232,394.39a33.17,33.17,0,0,0-15.71,7.44,44.44,44.44,0,0,1,16.11-4.44,38.79,38.79,0,0,1,33.08,13.42A44.48,44.48,0,0,1,274,425.21Z"/><path class="cls-4" d="M379.82,382.11s-2.49-19-13.85-24c0,0-27.16,8.14-49.7,16.7a264,264,0,0,0-26.13,11.11c-3.92,3.4-13.43,11.9-20.77,17.31a47,47,0,0,1-5.94,3.86,32.74,32.74,0,0,1-10.73,3.22h0a37.08,37.08,0,0,0-13.36,4.88C218.61,427.15,201.9,456.1,202,479.86c0,15.57,7.31,25,18.12,26.33v.06h.44a23.33,23.33,0,0,0,5.14-.05c18.81-.17,49-.32,60.84-3.71C341.89,486.28,385.41,446.29,379.82,382.11Z"/><path class="cls-18" d="M355,402.32c0,10.71-7.11,17.39-7.36,19.15-.07.47-2.91-9.84-2.91-20.55s-3.09-18,1.66-18S355,391.61,355,402.32Z"/><path class="cls-3" d="M327.3,374.08l8.12-14.7,32.6,22-12.9,17.33c-5.6,2.4-11.95,3.22-17.5.7a22.3,22.3,0,0,1-11.82-13.25C324.5,382.11,325.32,378.05,327.3,374.08Z"/><path class="cls-7" d="M338.48,361.44c0,17.7,14.08,26,22.68,29.14l6.86-9.22Z"/><path class="cls-17" d="M323.74,343.76c-1.21-7.08-2.42-14.35-1.05-21.39s5.93-13.94,12.81-16c2.47-5.95,8.43-17,14.56-19s12.67-2.17,19.12-2.32c7.12-.16,14.31-.3,21.28,1.19s13.78,11,18.23,16.56c5.12,6.42,6.51,15.23,5.28,23.35s-4.82,15.69-8.83,22.85c-13.68,1-27.61,2.54-41.29,3.51-7,.5-14,1-21,.18S329.18,348.17,323.74,343.76Z"/><path class="cls-3" d="M407.46,311a116.94,116.94,0,0,1-6.71,62.45c-1.83,4.58-4.2,9.32-8.48,11.76-4.49,2.56-10,2-15.16,1.26-8.22-1.24-16.51-2.93-23.92-6.73s-13.91-10-16.56-17.85c-5.44,1.31-11.13-1.21-14.5-5.68s-4.58-10.24-4.7-15.84c-.08-3.58.66-7.82,3.88-9.39,3-1.47,6.59.18,9.18,2.27a27.23,27.23,0,0,1,8.93,13.42c2.37-8.73,6.06-17.16,8.43-25.89.93-3.43,2.08-7.17,5.08-9.09,3.66-2.34,8.44-1,12.66.05C378.47,314.91,394.78,314.92,407.46,311Z"/><polygon class="cls-20" points="382 337.48 392.21 354.66 380.04 356.95 382 337.48"/><path class="cls-20" d="M368.31,362.87l9.25,4.5a6.05,6.05,0,0,1-7,2C368.27,368.34,367.63,365.27,368.31,362.87Z"/><path class="cls-15" d="M368.31,362.87l9.25,4.5a6.05,6.05,0,0,1-7,2C368.27,368.34,367.63,365.27,368.31,362.87Z"/><path class="cls-20" d="M373.76,369.66a5.51,5.51,0,0,1-3.21-.3c-1.79-.8-2.55-2.86-2.48-4.87a5.59,5.59,0,0,1,5.69,5.17Z"/><path class="cls-17" d="M364.38,338.16a3.49,3.49,0,1,0,3.83-3.13A3.49,3.49,0,0,0,364.38,338.16Z"/><path class="cls-17" d="M393.69,340a3.5,3.5,0,1,0,3.83-3.13A3.51,3.51,0,0,0,393.69,340Z"/><path class="cls-17" d="M398.47,326.47l7.18,6.11a5,5,0,0,0-1-5.61C403.28,325.56,400.23,325.53,398.47,326.47Z"/><path class="cls-17" d="M369.89,326l-8.25,4.55a5,5,0,0,1,2.05-5.3C365.36,324.15,368.36,324.72,369.89,326Z"/><polygon class="cls-21" points="508.41 482.65 428.26 529.23 347.6 482.65 427.74 436.08 508.41 482.65"/><polygon class="cls-21" points="508.41 482.65 508.18 564.18 428.03 610.76 428.26 529.23 508.41 482.65"/><polygon class="cls-22" points="428.26 529.23 428.03 610.76 347.36 564.18 347.6 482.65 428.26 529.23"/><polygon class="cls-6" points="442.23 476.69 469.35 460.1 455.51 452.11 428.26 468.36 442.23 476.69"/><polygon class="cls-18" points="442.23 476.69 428.26 468.36 400.59 451.85 386.8 459.87 414.3 476.69 428.26 485.22 465.17 507.78 479.96 499.19 442.23 476.69"/><polygon class="cls-6" points="414.3 476.69 376.4 499.29 391.25 507.86 428.26 485.22 414.3 476.69"/><polygon class="cls-6" points="479.96 499.19 465.17 507.78 465.28 507.86 465.51 588.98 480.47 580.29 480.24 499.35 479.96 499.19"/><polygon class="cls-18" points="391.25 507.86 376.4 499.29 376.29 499.35 376.06 580.75 391.01 589.39 391.25 507.86 391.25 507.86"/><polygon class="cls-7" points="391.25 507.86 376.4 499.29 376.29 499.35 376.06 580.75 391.01 589.39 391.25 507.86 391.25 507.86"/><polygon class="cls-18" points="428.23 501.32 411.45 511.58 428.23 521.27 444.96 511.55 428.23 501.32"/><path class="cls-13" d="M625.09,535.29C603.87,550,580,560.22,562.25,580c-33.1,36.9-33.87,96.27-7.87,138.48S628.72,786,678,791.82c51.65,6.09,105.85-8.18,146.37-40.78s66.31-83.53,66.29-135.54S864,511.7,820.39,483.29c-39.75-25.92-96.85-33.31-136.73-3.65-20.16,15-33.6,37.12-53.71,52.16Q627.55,533.6,625.09,535.29Z"/><path class="cls-7" d="M625.09,535.29C603.87,550,580,560.22,562.25,580c-33.1,36.9-33.87,96.27-7.87,138.48S628.72,786,678,791.82c51.65,6.09,105.85-8.18,146.37-40.78s66.31-83.53,66.29-135.54S864,511.7,820.39,483.29c-39.75-25.92-96.85-33.31-136.73-3.65-20.16,15-33.6,37.12-53.71,52.16Q627.55,533.6,625.09,535.29Z"/><path class="cls-4" d="M625.09,535.29C603.87,550,580,560.22,562.25,580c-33.1,36.9-33.87,96.27-7.87,138.48S628.72,786,678,791.82c51.65,6.09,105.85-8.18,146.37-40.78s66.31-83.53,66.29-135.54S864,511.7,820.39,483.29c-39.75-25.92-96.85-33.31-136.73-3.65-20.16,15-33.6,37.12-53.71,52.16Q627.55,533.6,625.09,535.29Z"/><path class="cls-23" d="M633.74,751.5c0-.35.09-.71.14-1.06,3.38-23.64,21.81-42,45.26-46.53a176.5,176.5,0,0,0,58-22.21c12.67-7.66,24.64-17.05,38.85-21.2,13.12-3.83,29.45-3.24,41.88,2.43-12-12.54-32.42-18.06-48.79-12.39,11.33-17.34,21.29-36,25.2-56.35s1.13-42.66-11.14-59.34A59.69,59.69,0,0,0,691,529.92c-12.15,13.28-19,32-27,48.12-5.73,11.59-11.66,23.45-21.1,32.28-14.25,13.33-34.74,18.13-49.51,30.88-16.76,14.46-24,37.57-24.06,59.7,0,14.93,2.76,29.63,6.49,44.14,17,16.5,38,29,60.58,37C633,772.46,632.34,761.7,633.74,751.5Z"/><path class="cls-18" d="M862.88,608.36A151.77,151.77,0,0,0,733.4,461a109.25,109.25,0,0,0-14.65,2.46,148,148,0,0,1,140.13,145c1,48.4-22.73,97.74-63.34,132-31.82,26.84-74.1,44.62-120.56,51,1,.13,2,.27,3,.38,4.18.5,8.37.84,12.57,1.07,41.29-8,78.67-25,107.6-49.42C839.64,708.47,863.85,658,862.88,608.36Z"/><path class="cls-24" d="M615,787.09l5.31,10.54c7.52-7,8.88-12.56,8.88-12.56-2.43-8.61-5.26-17.36-6.67-21.61-.72,5.92-4.77,11-6.48,16.81A28.65,28.65,0,0,0,615,787.09Z"/><path class="cls-17" d="M615.25,797.89l5.06-.26L615,787.09C614.84,790.66,615.14,794.28,615.25,797.89Z"/><path class="cls-12" d="M619.11,751a47.82,47.82,0,0,0-6.29-7.35c1.44,4.42,1.09,9.49-.1,14.08-1.58,6.11-4.45,11.84-5.88,18-1.74,7.48-1.34,15.53-4.51,22.53a24.17,24.17,0,0,1-16.89,13.47c-2.71.55-5.72.57-8-1a5.76,5.76,0,0,1-2.2-3,53.36,53.36,0,0,1-5.77,9.41c-2.51,3.24-5.62,6.8-4.94,10.84.57,3.34,3.75,5.76,7.06,6.45s6.76,0,10.05-.83c7.06-1.76,14.07-4.13,20.1-8.2s11-10,12.75-17.1a38.46,38.46,0,0,0,.79-10.45c-.11-3.61-.41-7.23-.25-10.8a28.65,28.65,0,0,1,1-6.82c1.71-5.78,5.76-10.89,6.48-16.81,0-.32.11-.63.13-1A19.33,19.33,0,0,0,619.11,751Z"/><path class="cls-23" d="M619.11,751a47.82,47.82,0,0,0-6.29-7.35c1.44,4.42,1.09,9.49-.1,14.08-1.58,6.11-4.45,11.84-5.88,18-1.74,7.48-1.34,15.53-4.51,22.53a24.17,24.17,0,0,1-16.89,13.47c-2.71.55-5.72.57-8-1a5.76,5.76,0,0,1-2.2-3,53.36,53.36,0,0,1-5.77,9.41c-2.51,3.24-5.62,6.8-4.94,10.84.57,3.34,3.75,5.76,7.06,6.45s6.76,0,10.05-.83c7.06-1.76,14.07-4.13,20.1-8.2s11-10,12.75-17.1a38.46,38.46,0,0,0,.79-10.45c-.11-3.61-.41-7.23-.25-10.8a28.65,28.65,0,0,1,1-6.82c1.71-5.78,5.76-10.89,6.48-16.81,0-.32.11-.63.13-1A19.33,19.33,0,0,0,619.11,751Z"/><path class="cls-25" d="M585.44,811.73a24.17,24.17,0,0,0,16.89-13.47c3.17-7,2.77-15,4.51-22.53,1.43-6.15,4.3-11.88,5.88-18,1.19-4.59,1.54-9.66.1-14.08L611,741.87c-9.07,4.7-19.38,8.56-27.64,14.57-.1,10.59-.2,21.22-2,31.65a74.64,74.64,0,0,1-6.13,19.68,5.76,5.76,0,0,0,2.2,3C579.72,812.3,582.73,812.28,585.44,811.73Z"/><path class="cls-26" d="M554.65,783.81c-1.5,8.76-8.2,26.58-8.2,26.58s31.42,1.28,32.11-.17l9.24-14.28Z"/><path class="cls-12" d="M648.72,575.53l-80.15,44.65a39.73,39.73,0,0,0-19.72,42l15.56,83.78-12.76,40.53c11,14.76,36.27,15.51,36.27,15.51,14.1-28.27,24.44-40.28,32.45-64s13.34-40,13.34-40l66.56-18.19A78.86,78.86,0,0,0,758,612.65c1.13-10.06,1.19-16.93,1.19-16.93Z"/><path class="cls-7" d="M643.28,601.92a37.92,37.92,0,0,0,9,24.43l-50.51,31.53a40.61,40.61,0,0,0-17.3,22.57l-20,65.46L582.46,673a33.08,33.08,0,0,1,14.7-20.17l46.18-28.4C638,611.09,643.28,601.92,643.28,601.92Z"/><path class="cls-24" d="M563.49,851l.74,11.78c9.65-3.44,13.11-8.06,13.11-8.06,1.15-8.87,2-18,2.36-22.5-3,5.16-8.72,8.27-12.56,12.91A27.83,27.83,0,0,0,563.49,851Z"/><path class="cls-17" d="M559.48,861l4.75,1.76L563.49,851C562,854.23,560.79,857.68,559.48,861Z"/><path class="cls-12" d="M581.46,819.45a48,48,0,0,0-2.9-9.23c-.4,4.63-2.73,9.16-5.62,12.91-3.86,5-8.75,9.14-12.48,14.23-4.54,6.2-7.34,13.75-13,18.94A24.15,24.15,0,0,1,526.63,862c-2.71-.56-5.49-1.72-7-4a5.82,5.82,0,0,1-.86-3.62,52.54,52.54,0,0,1-9,6.38c-3.58,2-7.84,4-8.8,8-.79,3.29,1.18,6.77,4,8.7s6.21,2.65,9.56,3.19c7.18,1.16,14.56,1.74,21.71.36s14.07-4.89,18.45-10.7a38.75,38.75,0,0,0,4.83-9.3c1.31-3.36,2.47-6.81,4-10a27.83,27.83,0,0,1,3.65-5.87c3.84-4.64,9.56-7.75,12.56-12.91.16-.27.35-.53.49-.82A19.25,19.25,0,0,0,581.46,819.45Z"/><path class="cls-26" d="M526.63,862a24.15,24.15,0,0,0,20.82-5.74c5.67-5.19,8.47-12.74,13-18.94,3.73-5.09,8.62-9.23,12.48-14.23,2.89-3.75,5.22-8.28,5.62-12.91-.32-.79-.64-1.58-1-2.36-10.18.75-21.19.25-31.14,2.53-4.26,9.69-8.54,19.43-14.3,28.3a73.94,73.94,0,0,1-13.38,15.69,5.82,5.82,0,0,0,.86,3.62C521.14,860.32,523.92,861.48,526.63,862Z"/><path class="cls-17" d="M730.87,457.14a127.47,127.47,0,0,0,2.23-95.45c-3.73-9.77-9-19.45-17.69-25.31-11.09-7.48-25.44-7.37-38.81-7-7.09.2-14.34.43-21,2.88s-12.13,7.72-13.88,14.6c-8.73-1.63-17.56,5.29-19.91,13.85s.73,17.93,6.16,25,13,12.11,20.55,16.74c-4.59,2.4-8,8-9.59,12.88a20.27,20.27,0,0,0,1.07,15.1c-8.06-.21-16.28,5.71-18.78,13.37s-.38,16.41,4.53,22.8,12.33,10.57,20.13,12.6,16,2.06,24,1.29c8.3,8,23.51,7.87,33.93,2.87S726.24,467.72,730.87,457.14Z"/><path class="cls-26" d="M656.58,437l-2,0c-13.65.15-30.93,9.45-39.37,33.28L582.36,533.8l37.45,16.61,20.49-60Z"/><path class="cls-25" d="M630.28,479.13c-2.62,7.5-2.78,15.6-3.19,23.54s-1.33,17.52-5,24.58a22.56,22.56,0,0,0-27,1,21,21,0,0,0-6.08,8.53l30.76,13.64,20.49-60,10.07-33.07A38.32,38.32,0,0,0,630.28,479.13Z"/><path class="cls-26" d="M620.16,538.94a22.41,22.41,0,0,0-16.94-13.7c-7.51-1.21-16,2.71-20.86,8.56-4.09,4.94-3.45,11.61-.87,17.48,4,9.2,15.31,14.54,25,11.84S623.8,548.31,620.16,538.94Z"/><path class="cls-13" d="M660,435.79c-14.47,2.3-23.42,38.86-28.12,52.73-4.85,14.35,1.75,24.75,9.1,33.42h0a14.81,14.81,0,0,1,3.38,11.48L629.2,589.9c41.5,30.81,111.07,15.88,129.94,5.82,0-25.8-6.5-45.16-12.2-57.19a94,94,0,0,1-9.19-37L737,480.8l5-35.76-36-8.58-31.76-1.41A128.08,128.08,0,0,0,660,435.79Z"/><path class="cls-27" d="M660,435.79c-14.47,2.3-23.42,38.86-28.12,52.73-4.85,14.35,1.75,24.75,9.1,33.42h0a14.81,14.81,0,0,1,3.38,11.48L629.2,589.9c41.5,30.81,111.07,15.88,129.94,5.82,0-25.8-6.5-45.16-12.2-57.19a94,94,0,0,1-9.19-37L737,480.8l5-35.76-36-8.58-31.76-1.41A128.08,128.08,0,0,0,660,435.79Z"/><path class="cls-12" d="M659.7,599v-.06a.2.2,0,0,0,0-.07l0-.13a.56.56,0,0,0,0-.12s0-.08,0-.12l-.06-.13a.34.34,0,0,0-.06-.12l-.06-.13h0l-24.51-45.64a.54.54,0,0,1-.07-.13l-.08-.13-.09-.14-.09-.14-.1-.15-.11-.15-.11-.15a1.71,1.71,0,0,1-.11-.14l-.11-.13-.1-.13-.09-.1-.09-.1-.07-.09-.06-.07-.07-.08-.07-.07-.05-.06,0-.05-.05,0,0-.06,0,0-.05,0,0-.05,0,0,0,0,0-.05-.05,0,0-.05,0,0-.05,0,0-.05-.05,0,0-.05-.08-.08-.1-.08-.09-.09-.36-.32-.07-.06-.08-.07-.08-.07-.08-.06,0,0a.1.1,0,0,0,0,0l-.05,0,0,0-.05,0,0,0,0,0-.05,0,0,0-.05,0,0,0,0,0-.05,0-.06-.05-.06,0-.06,0-.07,0-.06,0-.08-.06-.09-.06-.08-.06-.09-.06-.12-.08-.12-.08-.14-.09-.14-.09-.16-.09-.16-.1-.09-.05-28.19-15.86-.06,0-.17-.08-.15-.08-.16-.08-.15-.07-.15-.06-.15-.06-.15-.06-.15,0-.15,0-.1,0h-.06l-.17,0h-.19a.59.59,0,0,0-.43.17l-3.36,3.85s.09,0,.11,0c-.28.21-.3.66.1,1.41l24.52,45.64a15.69,15.69,0,0,0,5.41,5.13l28.18,15.85c1.46.82,2.33.84,2.45.25,0,.08,0,.2,0,.26h0l3.36-3.85a.51.51,0,0,0,.09-.18.8.8,0,0,0,0-.15A.66.66,0,0,0,659.7,599Zm-63.55-64.3c.08,0,.1-.06.19,0h0s.07,0,.1,0A1,1,0,0,0,596.15,534.66Zm32.32,18.19c.26.23.53.43.77.67h0C629,553.28,628.73,553.08,628.47,552.85Zm1.76,1.72c.11.12.24.24.34.36h0C630.47,554.81,630.34,554.69,630.23,554.57Zm26.09,48.26a2.38,2.38,0,0,0-.3-.91,2.54,2.54,0,0,1,.31.83h0S656.32,602.8,656.32,602.83Z"/><path class="cls-28" d="M659.7,599v-.06a.2.2,0,0,0,0-.07l0-.13a.56.56,0,0,0,0-.12s0-.08,0-.12l-.06-.13a.34.34,0,0,0-.06-.12l-.06-.13h0l-24.51-45.64-3.37,3.85L656,601.92a2.54,2.54,0,0,1,.31.83h0a.65.65,0,0,1-.1.52h0l3.36-3.85a.51.51,0,0,0,.09-.18.8.8,0,0,0,0-.15A.66.66,0,0,0,659.7,599Z"/><path class="cls-10" d="M634.8,552.3l-.08-.13-.09-.14-.09-.14-.1-.15-.11-.15-.11-.15a1.71,1.71,0,0,1-.11-.14l-.11-.13-.1-.13-.09-.1-.09-.1-.07-.09-.06-.07-.07-.08-.07-.07-.05-.06,0-.05-.05,0,0-.06,0,0-.05,0,0-.05,0,0,0,0,0-.05-.05,0,0-.05,0,0-.05,0,0-.05-.05,0,0-.05-.08-.08-.1-.08-.09-.09-.36-.32-.07-.06-.08-.07-.08-.07-.08-.06,0,0a.1.1,0,0,0,0,0l-.05,0,0,0-.05,0,0,0,0,0-.05,0,0,0-.05,0,0,0,0,0-.05,0-.06-.05-.06,0-.06,0-.07,0-.06,0-.08-.06-.09-.06-.08-.06-.09-.06-.12-.08-.12-.08-.14-.09-.14-.09-.16-.09-.16-.1-.09-.05-28.19-15.86-.06,0-.17-.08-.15-.08-.16-.08-.15-.07-.15-.06-.15-.06-.15-.06-.15,0-.15,0-.1,0h-.06l-.17,0h-.19a.59.59,0,0,0-.43.17l-3.36,3.85c.15-.17.43-.22.83-.14h0a5.47,5.47,0,0,1,1.55.64l28.19,15.86a13.8,13.8,0,0,1,1.6,1.06h0a19.44,19.44,0,0,1,1.55,1.33h0a15.74,15.74,0,0,1,1.33,1.41h0a8,8,0,0,1,.93,1.34l3.37-3.85A.54.54,0,0,1,634.8,552.3Z"/><path class="cls-26" d="M756,457c-4-6.86-9.24-12.13-17.15-12.73,0,0-13,6.7-13,37.15l.85,76.16h0c-1.87.76-3.73,1.55-5.59,2.32-15.42,6.4-32.52,12.1-49,14.8-8.27-7-20.07-10.6-30.9-10.48l4.16,7.74c-7.88,5-25.67-4.05-25.67-4.05-1.31,11.1,5.89,22.63,15.42,28.46S735.73,593.65,755,581.15c12.7-8.22,9.7-86.75,9.7-86.75A65.62,65.62,0,0,0,756,457Z"/><path class="cls-26" d="M600.47,544.94c-.26,2.41-1.31,6.7-1,9.11a33.26,33.26,0,0,0,8.78,19.47,10.08,10.08,0,0,0,3.77,2.67,4.43,4.43,0,0,0,4.39-.7c1.21-1.13,1.44-2.94,1.53-4.59a24.94,24.94,0,0,0-.4-7.37,10.36,10.36,0,0,0-3.89-6.12,23.18,23.18,0,0,0-4.93-2.18,12,12,0,0,1-4.4-3.18Z"/><path class="cls-26" d="M674.25,420.9v28.77c-2.82,2.66-5.51,5.71-5.77,9.51a9.93,9.93,0,0,0,5.13,9,14,14,0,0,0,10.57,1,24,24,0,0,0,9.35-5.42c7.4-6.57,12.48-17.57,12.48-27.3V407.33Z"/><path class="cls-25" d="M704.78,407.33c-3,15.83-9.17,29.54-30.53,34.47V420.9Z"/><path class="cls-26" d="M697.33,390.64a30.53,30.53,0,0,0,0,7.64,9,9,0,0,0,2.73,5,5.7,5.7,0,0,0,5.2,1.31,10,10,0,0,1,19.11-5.51,12.46,12.46,0,0,1-1.66,10.43,23.44,23.44,0,0,1-8,7.27,8.43,8.43,0,0,1-10.19-3.53c-9.17,12.66-25.66,22.55-41.52,21.87a22.64,22.64,0,0,1-12.19-3.74c-6.16-4.39-6.89-11.35-7.93-18.21a97.65,97.65,0,0,1-.87-26.28c1.44-12.09,6.31-24.11,15.31-32.31C663.75,380.47,688.09,389.09,697.33,390.64Z"/><polygon class="cls-25" points="664.31 389.02 654.03 402.8 664.24 405.84 664.31 389.02"/><path class="cls-29" d="M673.74,412l-8.32,3a5.21,5.21,0,0,0,5.82,2.33C673.28,416.64,674.1,414.08,673.74,412Z"/><path class="cls-15" d="M673.74,412l-8.32,3a5.21,5.21,0,0,0,5.82,2.33C673.28,416.64,674.1,414.08,673.74,412Z"/><path class="cls-29" d="M668.47,417.28a4.76,4.76,0,0,0,2.77,0,4.24,4.24,0,0,0,2.56-3.94,4.94,4.94,0,0,0-3.23.75A5,5,0,0,0,668.47,417.28Z"/><path class="cls-17" d="M679.32,391.18a3,3,0,1,1-3-3A3,3,0,0,1,679.32,391.18Z"/><path class="cls-17" d="M654.09,390.1a3,3,0,1,1-3-3A3,3,0,0,1,654.09,390.1Z"/><path class="cls-17" d="M651.21,378.13l-6.68,4.58a4.29,4.29,0,0,1,1.32-4.71C647.18,376.92,649.8,377.16,651.21,378.13Z"/><path class="cls-17" d="M677,377.87l6.65,4.64a4.29,4.29,0,0,0-1.28-4.72C681,376.7,678.38,376.92,677,377.87Z"/><g id="Clock"><g id="Clock-2" data-name="Clock"><path class="cls-19" d="M632.17,204.61l9.65-1.05h.06l.13,0h0c8.19-.83,17.15,2.94,25,11.52,15.71,17.27,20.79,47.46,11.36,67.44-4.69,9.93-12.08,15.46-20.26,16.41h-.18l-9.65,1,.12-6.08a40.91,40.91,0,0,1-8.53-7.23c-15.7-17.27-20.79-47.46-11.35-67.44a34.16,34.16,0,0,1,5.78-8.73Z"/><path class="cls-19" d="M680.3,277.51a43.69,43.69,0,0,1-2,5c-4.69,9.93-12.08,15.46-20.26,16.41h-.18l-9.65,1,.12-6.08c-.69-.43-1.38-.9-2.06-1.4L647.62,281Z"/><ellipse class="cls-19" cx="640.05" cy="252.31" rx="32.27" ry="48.43" transform="translate(-39.02 141.93) rotate(-12.28)"/><ellipse class="cls-30" cx="640.05" cy="252.31" rx="32.27" ry="48.43" transform="translate(-39.02 141.93) rotate(-12.28)"/><path class="cls-19" d="M627.64,212.43c7.77-5.09,17.52-2.5,26.11,6.93,14.2,15.62,19,44.07,10.46,62.14a25.69,25.69,0,0,1-8.67,10.69c-7.77,5.1-17.52,2.5-26.11-6.93-14.2-15.61-19-44.07-10.46-62.14a25.75,25.75,0,0,1,8.67-10.69Z"/><path class="cls-19" d="M625.84,212.5c8.51-5.18,19.08-2.67,28.27,6.7,15.21,15.5,20,44,10.47,62.14A27.2,27.2,0,0,1,655,292.12c-8.51,5.18-19.08,2.68-28.28-6.69-15.21-15.51-20-44-10.46-62.14a27.22,27.22,0,0,1,9.58-10.79Z"/><path class="cls-31" d="M631,285c5.85,6,12.26,9.14,18.35,9.33a18.06,18.06,0,0,0,5.32-2.18,27.2,27.2,0,0,0,9.59-10.78c9.54-18.18,4.75-46.64-10.46-62.14-5.86-6-12.27-9.14-18.35-9.33a18,18,0,0,0-5.33,2.18h0a27.15,27.15,0,0,0-9.58,10.79C611,241,615.74,269.47,631,285Z"/><path class="cls-19" d="M655.52,225.15a1.46,1.46,0,0,1,.21,1.48l-1.6,3.39a.55.55,0,0,1-1,.16,1.44,1.44,0,0,1-.21-1.48l1.6-3.4A.55.55,0,0,1,655.52,225.15Z"/><path class="cls-19" d="M622.81,228.68a1.5,1.5,0,0,0,.29,1.47l2.67,2.94c.35.39.8.36,1-.06a1.47,1.47,0,0,0-.29-1.47l-2.66-2.94C623.46,228.23,623,228.25,622.81,228.68Z"/><path class="cls-19" d="M664,275.38a1.47,1.47,0,0,0-.29-1.48L661,271c-.36-.39-.81-.37-1,.06a1.5,1.5,0,0,0,.29,1.47l2.67,2.94C663.33,275.83,663.78,275.8,664,275.38Z"/><path class="cls-19" d="M631.27,278.91a1.46,1.46,0,0,1-.21-1.48l1.6-3.4a.55.55,0,0,1,1-.15,1.47,1.47,0,0,1,.22,1.48l-1.6,3.39A.56.56,0,0,1,631.27,278.91Z"/></g><path class="cls-17" d="M634.56,234.46s2.86,16.59,3.48,18.84c0,0,1.8-.43,1.86-.2l2.53-2.11-6-16.73Z"/><path class="cls-24" d="M640.57,251.2l-6-16.74s2.86,16.59,3.48,18.84Z"/><path class="cls-24" d="M649.15,232.89s-8.56,13.62-10.68,16.73a2.59,2.59,0,0,0-.37.56,4.55,4.55,0,0,0,.78,4.6,2.07,2.07,0,0,0,1.71.79c.29,0,1.39-.16,1.67-.18a1.81,1.81,0,0,0,1.41-1.13c1.84-3.33,8.1-20.28,8.1-20.28l-.94-1.27Z"/><path class="cls-12" d="M638.1,250.18a4.55,4.55,0,0,0,.78,4.6c1.07,1.18,2.46,1,3.11-.33,1.84-3.34,8.1-20.29,8.1-20.29l-.94-1.27S638.76,248.81,638.1,250.18Z"/><path class="cls-17" d="M639.17,251.35a2,2,0,0,0,.35,2.08.79.79,0,0,0,1.4-.15,2,2,0,0,0-.35-2.08A.78.78,0,0,0,639.17,251.35Z"/><polygon class="cls-24" points="624.39 245.04 624.22 245.31 620.35 243.45 620.53 243.18 624.39 245.04"/><polygon class="cls-24" points="627.39 262.83 624.28 265.44 624.02 265.22 627.13 262.6 627.39 262.83"/><polygon class="cls-24" points="662.58 238.89 659.47 241.51 659.21 241.28 662.32 238.67 662.58 238.89"/><polygon class="cls-24" points="666.25 260.66 666.07 260.93 662.21 259.07 662.38 258.8 666.25 260.66"/><polygon class="cls-24" points="630.87 223.53 630.53 223.63 628.52 218.87 628.87 218.77 630.87 223.53"/><polygon class="cls-24" points="646.77 216.9 646.41 221.92 646.05 221.89 646.41 216.87 646.77 216.9"/><polygon class="cls-24" points="640.75 282.2 640.39 287.22 640.03 287.2 640.38 282.18 640.75 282.2"/><polygon class="cls-24" points="658.28 285.23 657.93 285.33 655.93 280.56 656.27 280.46 658.28 285.23"/></g><polygon class="cls-32" points="227.13 498.79 228.02 500.05 262.1 486.89 262.1 484.87 227.13 498.79"/><polygon class="cls-33" points="225.64 496.78 227.13 498.79 262.1 484.87 262.1 482.4 225.64 496.78"/><polyline class="cls-33" points="224.82 497.04 227.91 501.31 263.26 487.39 263.26 482.4"/><path class="cls-34" d="M269.71,426.17s-3.86-8.87-.12-23.15c0,0-3.3,2.24-5.21,3.47,0,0-5.38,18.72,4.52,32.08Z"/><path class="cls-34" d="M309.73,469.84v3c6.17,3.2,13.1,6.39,20.91,9.54l5.33-3.7A127.43,127.43,0,0,1,309.73,469.84Z"/><path class="cls-3" d="M269.57,498.51s6.25-91.06,7.55-96.68c5-21.66,36.42-20.11,39.4,1.91,1.22,9-13.12,96.25-13.12,96.25l51.94,55,10.53,9.66,9.36-1.9,21.37,2a2.6,2.6,0,0,1,2.32,2.07h0a2.62,2.62,0,0,1-1.94,3.08l-14.11,3.45,10.18,7a12.49,12.49,0,0,0,4.75,2l16,3a2.94,2.94,0,0,1,2.39,3.08h0a3,3,0,0,1-1.91,2.58l-8.57,3.2a41.36,41.36,0,0,1-34.29-2.44l-18.62-10.17a47.9,47.9,0,0,1-7.62-5.16l-66.33-54.92A25.9,25.9,0,0,1,269.57,498.51Z"/><path class="cls-4" d="M363.92,438.19a2.3,2.3,0,0,1-1.15-.13.87.87,0,0,1-.48-.66,2.07,2.07,0,0,1,.22-1.09l.87-1.92,1.85-.18-.8,1.76a1.13,1.13,0,0,0-.13.54c0,.11.12.15.31.13a.67.67,0,0,0,.46-.2,2,2,0,0,0,.37-.56l.79-1.77,1.85-.18-.87,1.93a4,4,0,0,1-1.92,1.95A4.16,4.16,0,0,1,363.92,438.19Z"/><path class="cls-18" d="M364.3,436a1.08,1.08,0,0,0-.13.6c0,.14.15.2.38.18a.94.94,0,0,0,.6-.28,2,2,0,0,0,.41-.63l.74-1.64,1.59-.15-.8,1.8a3.77,3.77,0,0,1-1.8,1.84,3.84,3.84,0,0,1-1.32.35,2,2,0,0,1-1.09-.12.77.77,0,0,1-.45-.61,2,2,0,0,1,.21-1l.81-1.8,1.59-.16Z"/><path class="cls-4" d="M358.14,438.75a2.3,2.3,0,0,1-1.15-.13.87.87,0,0,1-.48-.66,2.07,2.07,0,0,1,.22-1.09l.87-1.92,1.84-.18-.79,1.76a1.13,1.13,0,0,0-.13.54c0,.11.12.15.31.13a.67.67,0,0,0,.46-.2,2,2,0,0,0,.37-.56l.79-1.77,1.85-.18-.87,1.93a4,4,0,0,1-1.92,1.95A4.16,4.16,0,0,1,358.14,438.75Z"/><path class="cls-18" d="M358.52,436.55a1.08,1.08,0,0,0-.13.6c0,.14.15.2.38.18a.94.94,0,0,0,.6-.28,2,2,0,0,0,.41-.63l.74-1.64,1.59-.15-.8,1.8a3.77,3.77,0,0,1-1.8,1.84,3.84,3.84,0,0,1-1.32.35,2,2,0,0,1-1.09-.12.77.77,0,0,1-.45-.61,2,2,0,0,1,.21-1l.81-1.8,1.59-.16Z"/><path class="cls-4" d="M361.35,438.43a2.11,2.11,0,0,1-1.15-.13.87.87,0,0,1-.5-.65,1.77,1.77,0,0,1,.19-1,3.72,3.72,0,0,1,.78-1.11,4.16,4.16,0,0,1,1.16-.81,4.3,4.3,0,0,1,1.37-.38,2.42,2.42,0,0,1,.61,0,1.35,1.35,0,0,1,.41.11.76.76,0,0,1,.22.14l.06.07L363,436l-.06-.1-.06,0a.32.32,0,0,0-.13-.06.52.52,0,0,0-.22,0,.72.72,0,0,0-.33.11,1.44,1.44,0,0,0-.32.23,1,1,0,0,0-.21.3.54.54,0,0,0-.05.29.25.25,0,0,0,.12.19.35.35,0,0,0,.26.06,1.13,1.13,0,0,0,.34-.1l.23-.13.16-.12.31,1.2-.12.08a3.7,3.7,0,0,1-.37.2,3.16,3.16,0,0,1-.55.21A2.84,2.84,0,0,1,361.35,438.43Z"/><path class="cls-18" d="M362,437.08a1.08,1.08,0,0,0,.41-.11c.12-.07.22-.12.27-.16l.26,1-.34.18a2.57,2.57,0,0,1-.52.2,2.5,2.5,0,0,1-.64.13,2,2,0,0,1-1.09-.13.79.79,0,0,1-.47-.61,1.74,1.74,0,0,1,.18-1,3.5,3.5,0,0,1,.73-1,4,4,0,0,1,2.4-1.11,2.16,2.16,0,0,1,.57,0,1.76,1.76,0,0,1,.4.11.57.57,0,0,1,.2.13l-1.23,1.14-.07-.07a.48.48,0,0,0-.16-.07.63.63,0,0,0-.25,0,1.05,1.05,0,0,0-.41.14,1.49,1.49,0,0,0-.38.28,1.23,1.23,0,0,0-.25.36.7.7,0,0,0-.07.35.42.42,0,0,0,.14.24A.53.53,0,0,0,362,437.08Z"/><polygon class="cls-4" points="354.46 439.1 356.5 434.55 355.13 434.69 355.85 433.08 360.43 432.64 359.71 434.24 358.35 434.38 356.31 438.92 354.46 439.1"/><path class="cls-18" d="M356.68,434.42l-1.36.13.61-1.36,4.32-.41-.61,1.35-1.36.13-2,4.55-1.59.16Z"/><path class="cls-4" d="M359.73,435.32a.11.11,0,0,1-.14-.09l-.14-1.63a1.1,1.1,0,0,1,.11-.56,2.47,2.47,0,0,1,1.8-1.35.73.73,0,0,1,.73.28.9.9,0,0,1,0,.84h0a1.73,1.73,0,0,1-.19.31l-.09.12-.16.19h0L360,435.19A.47.47,0,0,1,359.73,435.32Zm1.28-2.83a.87.87,0,0,0-.66.49c-.12.25,0,.43.25.4a.87.87,0,0,0,.66-.49C361.38,432.64,361.26,432.46,361,432.49Z"/><path class="cls-18" d="M361.94,432.82c.27-.61,0-1.06-.63-1a2.23,2.23,0,0,0-1.63,1.21,1.09,1.09,0,0,0-.1.5h0l.15,1.63c0,.06.1,0,.16,0l1.65-1.76.09-.1h0A2.19,2.19,0,0,0,361.94,432.82Zm-1.39.69c-.33,0-.47-.2-.33-.52a1.14,1.14,0,0,1,.84-.63c.33,0,.47.2.33.52A1.17,1.17,0,0,1,360.55,433.51Z"/><text class="cls-35" transform="matrix(0.93, -0.09, -0.41, 0.91, 351.98, 441.36)">RE<tspan class="cls-36" x="3.15" y="0">P</tspan><tspan x="4.59" y="0">A</tspan><tspan class="cls-37" x="6.43" y="0">R</tspan><tspan x="8.03" y="0">TIDOR</tspan></text><path class="cls-19" d="M368.57,384.93l-2.74-.63a24.29,24.29,0,0,1-8.39,7.3L352,408.47l-5.22,14.78L346.59,393c-14.31-6.48-16.24-28.54-16.24-28.54L325.17,379s-3.29,14,15.05,21.33l6.54,22.94L360.43,399A73.7,73.7,0,0,0,368.57,384.93Z"/><path class="cls-38" d="M346.76,423.25s-7.38,69.18-90.89,82.4"/><path class="cls-5" d="M313,492.3l7.19-28.69,6.64-49.39A25.85,25.85,0,1,0,275.51,408l-6.05,85.66s23.74,6.3,23.77,7.66Z"/><path class="cls-4" d="M315.67,463.61l6.65-49.39A25.85,25.85,0,1,0,271,408L265,493.62s-1.85,19.08,16.33,32c0,0,62.33,55,72.9,58.7,0,0,6-27.22,12.87-20.4L306.7,499.43Z"/><g class="cls-39"><path class="cls-40" d="M280,524c-.7-1-1.51-1.82-2.23-2.75a9.94,9.94,0,0,1-1.65-3.2c-.34-1.13-.56-2.29-.93-3.41s-1-2.13-1.39-3.24a7.87,7.87,0,0,1-.34-1.33,8.37,8.37,0,0,1-.59-1.88,12,12,0,0,1,.05-3.33,10.64,10.64,0,0,0-.13-3.56,23.59,23.59,0,0,0-1.07-3.06,13.76,13.76,0,0,1-1.28-6.24,26.9,26.9,0,0,1,1.45-5.78,13.82,13.82,0,0,0,.65-6.41c-.35-2.35-1.06-4.64-1.24-7-.29-4,1.52-7.79,1.63-11.74a13.86,13.86,0,0,1-.33-3c0-3.32,1.49-6.22,3.05-9.07-.14-.81-.27-1.63-.37-2.44a75.46,75.46,0,0,1-.28-13.61c.12-2.12.29-4.24.49-6.36s.32-4,.68-6c1-5.54,4.08-10.41,5.4-15.86a42.33,42.33,0,0,1,1.28-4.39,16.09,16.09,0,0,0-4.9-7.26A25.79,25.79,0,0,0,271,408L265,493.62s-1.8,18.69,15.78,31.59a2.36,2.36,0,0,0,0-.28C280.44,524.61,280.2,524.28,280,524Z"/><path class="cls-40" d="M298.73,443.63a27.33,27.33,0,0,1-1-5.88c0-.76,0-1.51,0-2.27-.39,1.57-.77,3.15-1.11,4.73a96.06,96.06,0,0,0-2.18,14.69,33.82,33.82,0,0,0,1.11,12.43,10.36,10.36,0,0,0,5.84,6.75,33.37,33.37,0,0,0,2.23-12,32,32,0,0,0-1.69-8.66C300.84,450.18,299.65,447,298.73,443.63Z"/><path class="cls-40" d="M310,514a23,23,0,0,0,6.25,3.85,80.58,80.58,0,0,0,7.67,2.91l4,1.3L310,503a10,10,0,0,0-2.59,5.92A7,7,0,0,0,310,514Z"/><path class="cls-40" d="M338.83,533.76c.14,1,.26,1.93.35,2.89.42,4.52.44,9.3,2.54,13.44a14.7,14.7,0,0,0,5,5.56,38.72,38.72,0,0,0,5.95,3.12,30.28,30.28,0,0,1,5.65,3.07,18.73,18.73,0,0,1,3.22,3.07c1.69-2.13,3.56-2.93,5.51-1Z"/></g></g></g></svg>